<?xml version="1.0" encoding="UTF-8"?>
<svg width="867px" height="582px" viewBox="0 0 867 582" version="1.1" xmlns="http://www.w3.org/2000/svg" xmlns:xlink="http://www.w3.org/1999/xlink">
    <!-- Generator: Sketch 49.1 (51147) - http://www.bohemiancoding.com/sketch -->
    <title>desk</title>
    <desc>Created with Sketch.</desc>
    <defs>
        <linearGradient x1="50%" y1="-2.48949813e-15%" x2="50%" y2="100%" id="linearGradient-1">
            <stop stop-color="#F0F0F0" stop-opacity="0" offset="0%"></stop>
            <stop stop-color="#ECE6DC" offset="100%"></stop>
        </linearGradient>
        <rect id="path-2" x="0" y="0" width="400" height="185"></rect>
    </defs>
    <g id="desk" stroke="none" stroke-width="1" fill="none" fill-rule="evenodd">
        <g transform="translate(54.000000, 0.000000)">
            <g id="Desk" transform="translate(101.000000, 413.000000)">
                <path d="M0.210954174,0.984452814 C0.094447401,0.440754538 0.453814873,0 0.995722857,0 L554.004277,0 C554.5542,0 554.906926,0.434344053 554.789046,0.984452814 L552,14 L545.872401,17.5014849 C545.390587,17.7768072 544.549652,18 544.0021,18 L10.9979005,18 C10.4467753,18 9.60359323,17.7734818 9.12759863,17.5014849 L3,14 L0.210954174,0.984452814 Z" id="Rectangle" fill="#E4D8CA"></path>
                <rect id="Rectangle" fill="#F6EBE0" x="0" y="0" width="555" height="14" rx="1"></rect>
                <g id="Feet" transform="translate(10.000000, 18.000000)" fill="#EAE0D6">
                    <polygon id="Path-7" points="26 0 0 151 8 151 42 0"></polygon>
                    <rect id="Rectangle-4" x="10" y="115" width="70" height="10"></rect>
                    <polygon id="Path-7" transform="translate(71.000000, 75.500000) scale(-1, 1) translate(-71.000000, -75.500000) " points="76 0 50 151 58 151 92 0"></polygon>
                </g>
                <g id="Feet" transform="translate(499.000000, 93.500000) scale(-1, 1) translate(-499.000000, -93.500000) translate(453.000000, 18.000000)" fill="#EAE0D6">
                    <polygon id="Path-7" points="26 0 0 151 8 151 42 0"></polygon>
                    <rect id="Rectangle-4" x="10" y="115" width="70" height="10"></rect>
                    <polygon id="Path-7" transform="translate(71.000000, 75.500000) scale(-1, 1) translate(-71.000000, -75.500000) " points="76 0 50 151 58 151 92 0"></polygon>
                </g>
            </g>
            <g id="iMac" transform="translate(338.000000, 252.000000)">
                <path d="M132.209,160.179 C132.209,161.619 129.892,161.087 128.451,161.087 L79.757,161.087 C78.316,161.087 76,161.619 76,160.179 L82.488,122.61 C82.488,121.169 83.656,120 85.097,120 L123.109,120 C124.55,120 125.72,121.169 125.72,122.61 L132.209,160.179" id="Fill-242" fill="#CDCECA"></path>
                <path d="M207.108,2.61 C207.108,1.168 205.94,0 204.498,0 L2.61,0 C1.169,0 0,1.168 0,2.61 L0,115.91 L207.108,115.91 L207.108,2.61" id="Fill-243" fill="#1B1A19"></path>
                <path d="M0,116 L0,133.344 C0,134.784 1.169,135.953 2.61,135.953 L204.498,135.953 C205.94,135.953 207.108,134.784 207.108,133.344 L207.108,116 L0,116" id="Fill-244" fill="#F3F4F1"></path>
                <path d="M107.621473,123.960239 C106.928473,124.443239 106.530473,125.079239 106.588473,125.947239 C106.647473,126.811239 107.116473,127.394239 107.879473,127.771239 L107.784473,128.042239 C107.612473,128.490239 107.383473,128.902239 107.108473,129.291239 C106.981473,129.469239 106.852473,129.648239 106.705473,129.810239 C106.559473,129.971239 106.397473,130.114239 106.200473,130.213239 C106.026473,130.300239 105.842473,130.337239 105.647473,130.331239 C105.436473,130.323239 105.239473,130.261239 105.047473,130.177239 C104.907473,130.118239 104.766473,130.055239 104.618473,130.013239 C104.381473,129.946239 104.139473,129.931239 103.897473,129.960239 C103.688473,129.984239 103.495473,130.050239 103.301473,130.130239 C103.153473,130.193239 103.008473,130.259239 102.852473,130.297239 C102.713473,130.332239 102.573473,130.351239 102.428473,130.337239 C102.264473,130.324239 102.116473,130.264239 101.977473,130.177239 C101.789473,130.062239 101.631473,129.910239 101.489473,129.742239 C100.860473,129.005239 100.416473,128.169239 100.176473,127.229239 C100.110473,126.966239 100.059473,126.701239 100.030473,126.432239 C99.9954725,126.125239 99.9894725,125.818239 100.018473,125.511239 C100.059473,125.096239 100.159473,124.695239 100.358473,124.327239 C100.637473,123.803239 101.047473,123.418239 101.598473,123.192239 C101.871473,123.080239 102.157473,123.026239 102.450473,123.029239 C102.649473,123.031239 102.840473,123.072239 103.028473,123.138239 C103.211473,123.203239 103.393473,123.276239 103.577473,123.342239 C103.668473,123.378239 103.762473,123.407239 103.858473,123.431239 C103.993473,123.470239 104.125473,123.447239 104.254473,123.401239 C104.424473,123.338239 104.594473,123.273239 104.762473,123.207239 C104.932473,123.145239 105.106473,123.086239 105.282473,123.046239 C105.481473,123.000239 105.682473,122.992239 105.883473,123.006239 C106.198473,123.029239 106.496473,123.100239 106.780473,123.238239 C107.118473,123.401239 107.395473,123.635239 107.610473,123.944239 L107.621473,123.960239" id="Fill-245" fill="#1B1A19"></path>
                <path d="M105.954553,121 L105.959553,121.215 C105.936553,121.809 105.698553,122.31 105.276553,122.723 C105.075553,122.919 104.838553,123.06 104.571553,123.151 C104.397553,123.21 104.217553,123.237 104.034553,123.23 L104.010553,123.202 C103.971553,122.877 104.043553,122.568 104.178553,122.273 C104.457553,121.667 104.922553,121.272 105.551553,121.069 C105.666553,121.032 105.784553,121.009 105.905553,121 L105.954553,121" id="Fill-246" fill="#1B1A19"></path>
                <path d="M132.209,159.947 C132.209,160.47 131.783,160.893 131.261,160.893 L76.947,160.893 C76.423,160.893 76,160.47 76,159.947 C76,159.422 76.423,159 76.947,159 L131.261,159 C131.783,159 132.209,159.422 132.209,159.947" id="Fill-247" fill="#F3F4F1"></path>
                <path d="M177,160.872 C177,160.872 177.246,156 185.122,156 C192.998,156 192.998,160.872 192.998,160.872 L177,160.872" id="Fill-1172" fill="#F3F4F1"></path>
            </g>
            <g id="Books" transform="translate(572.000000, 381.400024)">
                <path d="M4.6432006,9.64473285 L44.2731793,9.64473285 L44.2731793,10.9696132 C42.3968269,13.3391108 42.706838,15.9747169 44.2731793,17.9492982 L44.2731793,19.2736124 L4.6432006,19.2736124 C-1.54759067,19.2736124 -1.54787639,9.64473285 4.6432006,9.64473285 L4.6432006,9.64473285 Z" id="Shape" fill="#3EB8AE"></path>
                <path d="M44.2728936,17.9492982 C42.6734082,15.623114 42.552261,13.2963636 44.2728936,10.9696132 L4.64262915,10.9696132 C2.7791344,10.9696132 1.25079442,12.5424841 1.25079442,14.4593142 C1.25079442,16.3764274 2.77942013,17.9490152 4.64262915,17.9490152 L44.2728936,17.9490152 L44.2728936,17.9492982 Z" id="Shape" fill="#FFFFFF"></path>
                <g id="Group" transform="translate(1.039930, 10.813628)" fill="#ECF0F1">
                    <path d="M42.853236,0.717643541 C42.9680972,0.530518341 43.0946732,0.342826954 43.2332495,0.155984848 L3.60269936,0.155984848 C-0.187149503,0.155984848 -1.24975866,5.53788676 2.57237706,6.96807815 C-0.0374299006,5.70972488 0.936890412,1.41830144 3.67641626,0.717643541 L42.853236,0.717643541 L42.853236,0.717643541 Z" id="Shape"></path>
                    <path d="M42.4612221,1.38206539 L1.02832223,1.38206539 C1.1051821,1.2903429 1.18547067,1.20230064 1.271188,1.11878788 L42.5955126,1.11878788 C42.548368,1.20626396 42.5035093,1.29430622 42.4612221,1.38206539 L42.4612221,1.38206539 L42.4612221,1.38206539 Z M0.682024219,1.87917863 L0.682024219,1.87917863 C0.632879616,1.96467305 0.586306534,2.05271531 0.544590767,2.14245614 L42.1649259,2.14245614 C42.1917839,2.05469697 42.2209278,1.9666547 42.2532147,1.87917863 L0.682024219,1.87917863 L0.682024219,1.87917863 Z M0.356012642,2.63928628 L0.356012642,2.63928628 C0.330011719,2.72562998 0.307725213,2.81395534 0.288581676,2.90284689 L41.9923483,2.90284689 C42.0054916,2.81480463 42.0209207,2.72732855 42.0380642,2.63928628 L0.356012642,2.63928628 L0.356012642,2.63928628 Z M0.219436364,3.39939394 L0.219436364,3.39939394 C0.213721875,3.48092504 0.211150355,3.56302233 0.211150355,3.64568581 L0.211150355,3.66352073 L41.9400607,3.66352073 C41.9394893,3.57547847 41.9414893,3.48800239 41.9454895,3.39967703 L0.219436364,3.39967703 L0.219436364,3.39939394 L0.219436364,3.39939394 Z M0.248008807,4.16035088 L0.248008807,4.16035088 C0.260866406,4.24924242 0.276866974,4.33728469 0.29658196,4.4233453 L42.0026344,4.4233453 C41.9889196,4.33586922 41.9766335,4.24839314 41.9680617,4.16035088 L0.248008807,4.16035088 L0.248008807,4.16035088 Z M0.446873011,4.92045853 L0.446873011,4.92045853 C0.481445668,5.00991627 0.519732741,5.09795853 0.561448509,5.18373604 L42.1809264,5.18373604 C42.1534969,5.09654306 42.1286388,5.0085008 42.1054952,4.92045853 L0.446873011,4.92045853 L0.446873011,4.92045853 Z M0.853173153,5.68056619 L0.853173153,5.68056619 C0.917461151,5.77200558 0.985463565,5.85976475 1.0571804,5.94412679 L42.4823657,5.94412679 C42.4406499,5.85721691 42.4009342,5.76889155 42.3635043,5.68056619 L0.853173153,5.68056619 L0.853173153,5.68056619 L0.853173153,5.68056619 Z M1.58034183,6.44124003 L1.58034183,6.44124003 C1.70634631,6.53805821 1.83892244,6.62638357 1.97749879,6.70480064 L42.9189526,6.70480064 C42.8606648,6.61817384 42.8046629,6.52984848 42.7509467,6.44124003 L1.58034183,6.44124003 L1.58034183,6.44124003 Z" id="Shape"></path>
                </g>
                <path d="M47.6713,19.2736124 L1.70138185,19.2736124 L1.70138185,20.9653828 C3.87803057,23.9930742 3.51830351,27.3607616 1.70138185,29.8836962 L1.70138185,31.5757496 L47.6713,31.5757496 C54.8529835,31.5760327 54.8529835,19.2736124 47.6713,19.2736124 L47.6713,19.2736124 L47.6713,19.2736124 Z" id="Shape" fill="#FF9296"></path>
                <path d="M1.70138185,29.8839793 C3.55716203,26.910925 3.69745273,23.9381539 1.70138185,20.9656659 L47.6713,20.9656659 C49.8336625,20.9656659 51.607154,22.9759171 51.607154,25.4252472 C51.607154,27.8742943 49.8333767,29.8839793 47.6713,29.8839793 L1.70138185,29.8839793 L1.70138185,29.8839793 Z" id="Shape" fill="#FFFFFF"></path>
                <g id="Group" transform="translate(1.611379, 20.721922)" fill="#ECF0F1">
                    <path d="M0.53059027,0.961670654 C0.397442685,0.722173046 0.251151776,0.482392344 0.090003196,0.243460925 L46.0599213,0.243460925 C50.4569346,0.243460925 51.6895498,7.12038278 47.2551066,8.94803828 C50.2832141,7.33921451 49.1526026,1.8565311 45.9750612,0.961670654 L0.53059027,0.961670654 L0.53059027,0.961670654 Z" id="Shape"></path>
                    <path d="M0.98574929,1.81038676 L49.047456,1.81038676 C48.9583099,1.69290271 48.8640209,1.58051435 48.765446,1.47407097 L0.82974375,1.47407097 C0.884602841,1.58561005 0.936890412,1.6982815 0.98574929,1.81038676 L0.98574929,1.81038676 L0.98574929,1.81038676 Z M49.4483273,2.44536683 L49.4483273,2.44536683 C49.5054722,2.55492424 49.5589027,2.6673126 49.6080473,2.7822488 L1.32919006,2.7822488 C1.29776037,2.66957735 1.26375916,2.55775518 1.22690071,2.44536683 L49.4483273,2.44536683 L49.4483273,2.44536683 L49.4483273,2.44536683 Z M49.8269122,3.41666268 L49.8269122,3.41666268 C49.8563418,3.52735247 49.882057,3.64002392 49.9046293,3.75326156 L1.52862571,3.75326156 C1.51376804,3.64143939 1.49605313,3.52905104 1.47548097,3.41666268 L49.8269122,3.41666268 L49.8269122,3.41666268 Z M49.9854893,4.38852472 L49.9854893,4.38852472 C49.9917752,4.49213716 49.9954896,4.59716507 49.9954896,4.70332536 L49.9949182,4.7254067 L1.59091364,4.7254067 C1.59119936,4.61330144 1.58919929,4.50091308 1.5846277,4.38880781 L49.9854893,4.38880781 L49.9854893,4.38852472 Z M49.9517738,5.35982057 L49.9517738,5.35982057 C49.9372018,5.47334131 49.918344,5.58572967 49.8957718,5.69641946 L1.51805391,5.69641946 C1.5343402,5.58488038 1.54776925,5.47220893 1.55862678,5.35982057 L49.9517738,5.35982057 L49.9517738,5.35982057 L49.9517738,5.35982057 Z M49.7214799,6.33168262 L49.7214799,6.33168262 C49.680907,6.44633573 49.636334,6.55815789 49.5889038,6.66799841 L1.31033224,6.66799841 C1.34233338,6.55645933 1.37119155,6.44463716 1.39776392,6.33168262 L49.7214799,6.33168262 L49.7214799,6.33168262 L49.7214799,6.33168262 Z M49.2503203,7.30297847 L49.2503203,7.30297847 C49.1754605,7.41989633 49.0963148,7.53228469 49.0125976,7.63986045 L0.96060554,7.63986045 C1.00946442,7.52832137 1.05546605,7.41593301 1.09832472,7.30297847 L49.2503203,7.30297847 L49.2503203,7.30297847 Z M48.4068618,8.27427432 L48.4068618,8.27427432 C48.2605709,8.39826954 48.1065654,8.51094099 47.9457026,8.61087321 L0.454873295,8.61087321 C0.522589986,8.50018341 0.587163707,8.38836124 0.649451634,8.27427432 L48.4068618,8.27427432 L48.4068618,8.27427432 Z" id="Shape"></path>
                </g>
                <path d="M40.6870519,0 L10.0876796,0 L10.0876796,1.3240311 C11.5365882,3.69352871 11.2971512,6.32913477 10.0876796,8.3039992 L10.0876796,9.6280303 L40.6870519,9.6280303 C45.4680789,9.6283134 45.4683646,0 40.6870519,0 L40.6870519,0 L40.6870519,0 Z" id="Shape" fill="#FFD480"></path>
                <path d="M10.0876796,8.3039992 C11.3231521,5.9775319 11.4162983,3.65049841 10.0876796,1.3240311 L40.6876234,1.3240311 C42.1259602,1.3240311 43.307145,2.8974681 43.307145,4.81458134 C43.307145,6.73141148 42.1259602,8.3039992 40.6876234,8.3039992 L10.0876796,8.3039992 L10.0876796,8.3039992 L10.0876796,8.3039992 Z" id="Shape" fill="#FFFFFF"></path>
                <g id="Group" transform="translate(9.897387, 1.188429)" fill="#ECF0F1">
                    <path d="M0.483445739,0.697826954 C0.395156889,0.510135566 0.297724858,0.322727273 0.190292472,0.135602073 L30.7902362,0.135602073 C33.7163401,0.135602073 34.5372264,5.51750399 31.5854073,6.94797847 C33.6011932,5.68934211 32.8483093,1.39820175 30.7333771,0.697826954 L0.483445739,0.697826954 L0.483445739,0.697826954 Z" id="Shape"></path>
                    <path d="M0.786599361,1.3622488 L32.7785925,1.3622488 C32.7194476,1.26967703 32.6565882,1.18248405 32.5911573,1.0984051 L0.682881392,1.0984051 C0.719454119,1.18644737 0.753741051,1.27392344 0.786599361,1.3622488 L0.786599361,1.3622488 Z M33.0454592,1.85879585 L33.0454592,1.85879585 C33.0837462,1.94485646 33.1188903,2.03233254 33.1514629,2.12263955 L1.01517891,2.12263955 C0.994321023,2.03431419 0.972034517,1.94683812 0.947176491,1.85879585 L33.0454592,1.85879585 L33.0454592,1.85879585 Z M33.2974681,2.6194697 L33.2974681,2.6194697 C33.3168974,2.70637959 33.3346123,2.79357257 33.3488985,2.8830303 L1.14775504,2.8830303 C1.13804041,2.79498804 1.12632571,2.70751196 1.11232521,2.6194697 L33.2974681,2.6194697 L33.2974681,2.6194697 L33.2974681,2.6194697 Z M33.4029004,3.37986045 L33.4029004,3.37986045 C33.4069006,3.46082536 33.4100435,3.54348884 33.4100435,3.62615231 L33.4097578,3.64313796 L1.18918509,3.64313796 C1.18947081,3.55566188 1.18775646,3.46761962 1.18489922,3.37986045 L33.4029004,3.37986045 L33.4029004,3.37986045 L33.4029004,3.37986045 Z M33.3811854,4.1402512 L33.3811854,4.1402512 C33.371185,4.22914274 33.3583274,4.31661882 33.3434697,4.40352871 L1.14089766,4.40352871 C1.15146946,4.31605263 1.16089837,4.22801037 1.16747003,4.1402512 L33.3811854,4.1402512 L33.3811854,4.1402512 Z M33.2271799,4.90007576 L33.2271799,4.90007576 C33.2006075,4.99009968 33.1706065,5.07757576 33.1391768,5.16391946 L1.00232131,5.16391946 C1.02346491,5.07644338 1.0431799,4.98840112 1.06089482,4.90007576 L33.2271799,4.90007576 L33.2271799,4.90007576 L33.2271799,4.90007576 Z M32.9134545,5.6607496 L32.9134545,5.6607496 C32.8643099,5.7519059 32.8114509,5.84023126 32.7557346,5.9245933 L0.770313068,5.9245933 C0.802599929,5.83740032 0.832886719,5.74935805 0.862030611,5.6607496 L32.9134545,5.6607496 L32.9134545,5.6607496 Z M32.3525774,6.42142344 L32.3525774,6.42142344 C32.2551454,6.51824163 32.152856,6.60628389 32.0457094,6.68441786 L0.433443963,6.68441786 C0.478302699,6.59750797 0.521447088,6.51031499 0.562305682,6.42142344 L32.3525774,6.42142344 L32.3525774,6.42142344 Z" id="Shape"></path>
                </g>
            </g>
            <g id="Cup" transform="translate(572.000000, 298.000000)">
                <path d="M11.6600577,73.8982255 C8.32726533,73.8982255 5.51559433,72.5965167 3.48134781,70.0989634 C-0.406626079,65.3240549 -0.396408013,57.5349748 0.467018514,54.6156577 C0.859562527,53.2860006 1.73746465,52.3332209 2.93893884,51.93263 C4.36350746,51.4566636 6.11079664,51.7530839 8.27787802,52.8379824 C9.67349545,53.5358407 10.7608679,54.332788 10.8068492,54.3666646 L8.64402536,57.2766656 C8.63380729,57.2698903 7.6196643,56.5305332 6.40797205,55.9563246 C4.87951976,55.232212 4.18128529,55.3101282 4.07740163,55.3711061 C4.07825313,55.3711061 4.01864775,55.4303902 3.95733936,55.6370375 C3.27358048,57.9516571 3.48305082,64.3501023 6.30919741,67.8216082 C7.80273797,69.6551798 9.79611223,70.4487395 12.4017189,70.2497144 L12.6810127,73.8584205 C12.336153,73.8846749 11.9946993,73.8982255 11.6600577,73.8982255" id="Fill-147" fill="#C8CABB"></path>
                <path d="M25.8469192,83.32 L17.6477732,83.32 L17.6477732,81.4517048 C6.4606946,73.1629446 8.69759942,47.4785439 8.69759942,47.4785439 L42.9953875,47.4785439 C42.9953875,47.4785439 45.2322923,73.1629446 34.0452137,81.4517048 L34.0452137,83.32 L25.8469192,83.32" id="Fill-148" fill="#EBEDDC"></path>
                <path d="M25.3867407,0.417757748 C18.2947041,9.72645075 14.8324572,17.1184422 15,22.593732 C15.2513142,30.8066667 24.9672726,32.4402821 26.4567904,35.3869272 C27.4498022,37.3513572 27.4498022,40.6417743 26.4567904,45.2581783 C32.5092507,38.2320391 35.5354809,32.7376361 35.5354809,28.7749695 C35.5354809,22.8309696 28.565461,25.2862733 26.4567904,19.3943085 C25.0510099,15.4663319 24.6943267,9.14081502 25.3867407,0.417757748 Z" id="smoke1" fill="url(#linearGradient-1)"></path>
                <path d="M24.0410451,11.2878804 C19.0346065,16.5824485 16.6622465,21.467192 16.9239653,25.942111 C17.3165434,32.6544895 22.8837416,31.8961283 24.0410451,34.9691694 C24.8125807,37.0178635 24.8125807,40.3082805 24.0410451,44.8404206 C26.4985526,41.5579911 28.3286225,39.258392 29.5312548,37.9416235 C32.4941293,34.6975563 35.5100095,32.4080757 36.1290306,29.4985735 C37.6228994,22.4771412 27.8010642,27.2235565 25.1030659,22.4771412 C23.3044004,19.3128644 22.9503935,15.5831108 24.0410451,11.2878804 Z" id="smoke2" fill="#D6D6D6" opacity="0"></path>
                <path d="M25.1536684,4.63291444 C23.737109,5.99499928 22.5564738,6.86375988 21.6117627,7.23919625 C18.4439493,8.49811281 14.7450391,9.40261613 12.4689243,13.4758062 C7.52748112,22.3186979 25.9179401,27.3928044 27.6450344,30.0954163 C28.7964306,31.8971576 28.2617675,35.812159 26.0410451,41.8404206 C30.0505339,35.1403476 31.8891246,29.7338705 31.5568174,25.6209893 C31.0583565,19.4516675 26.0350198,22.0299504 25.1536684,16.7334486 C24.5661009,13.2024474 24.5661009,9.16893598 25.1536684,4.63291444 Z" id="smoke3" fill="#D8D8D8" opacity="0"></path>
            </g>
            <g id="Shelf" transform="translate(631.000000, 0.000000)">
                <path d="M35.807,280.753332 C35.807,282.017332 34.949,283.040332 33.891,283.040332 L17.532,283.040332 C16.475,283.040332 15.617,282.017332 15.617,280.753332 L15.617,186.320332 C15.617,185.057332 16.475,184.033332 17.532,184.033332 L33.891,184.033332 C34.949,184.033332 35.807,185.057332 35.807,186.320332 L35.807,280.753332" id="Fill-178" fill="#8AD998"></path>
                <polygon id="Fill-179" fill="#F6F6F4" points="19.276 254.150332 32.148 254.150332 32.148 193.068332 19.276 193.068332"></polygon>
                <path d="M32.781,267.581332 C32.781,271.484332 29.615,274.648332 25.713,274.648332 C21.809,274.648332 18.644,271.484332 18.644,267.581332 C18.644,263.677332 21.809,260.512332 25.713,260.512332 C29.615,260.512332 32.781,263.677332 32.781,267.581332" id="Fill-180" fill="#F6F6F4"></path>
                <polygon id="Fill-182" fill="#D5D4CF" points="21.426 199.362332 29.998 199.362332 29.998 197.224332 21.426 197.224332"></polygon>
                <polygon id="Fill-183" fill="#D5D4CF" points="21.426 205.277332 29.998 205.277332 29.998 203.138332 21.426 203.138332"></polygon>
                <path d="M56.473,280.753332 C56.473,282.017332 55.616,283.040332 54.559,283.040332 L38.199,283.040332 C37.142,283.040332 36.285,282.017332 36.285,280.753332 L36.285,186.320332 C36.285,185.057332 37.142,184.033332 38.199,184.033332 L54.559,184.033332 C55.616,184.033332 56.473,185.057332 56.473,186.320332 L56.473,280.753332" id="Fill-184" fill="#8DE0D8"></path>
                <polygon id="Fill-185" fill="#F6F6F4" points="39.944 254.150332 52.815 254.150332 52.815 193.068332 39.944 193.068332"></polygon>
                <path d="M53.447,267.581332 C53.447,271.484332 50.282,274.648332 46.38,274.648332 C42.476,274.648332 39.311,271.484332 39.311,267.581332 C39.311,263.677332 42.476,260.512332 46.38,260.512332 C50.282,260.512332 53.447,263.677332 53.447,267.581332" id="Fill-186" fill="#F6F6F4"></path>
                <polygon id="Fill-188" fill="#D5D4CF" points="42.094 199.362332 50.666 199.362332 50.666 197.224332 42.094 197.224332"></polygon>
                <polygon id="Fill-189" fill="#D5D4CF" points="42.094 205.277332 50.666 205.277332 50.666 203.138332 42.094 203.138332"></polygon>
                <path d="M77.141,280.753332 C77.141,282.017332 76.283,283.040332 75.226,283.040332 L58.867,283.040332 C57.809,283.040332 56.952,282.017332 56.952,280.753332 L56.952,186.320332 C56.952,185.057332 57.809,184.033332 58.867,184.033332 L75.226,184.033332 C76.283,184.033332 77.141,185.057332 77.141,186.320332 L77.141,280.753332" id="Fill-190" fill="#B9C789"></path>
                <polygon id="Fill-191" fill="#F6F6F4" points="60.611 254.150332 73.482 254.150332 73.482 193.068332 60.611 193.068332"></polygon>
                <path d="M74.115,267.581332 C74.115,271.484332 70.95,274.648332 67.047,274.648332 C63.143,274.648332 59.978,271.484332 59.978,267.581332 C59.978,263.677332 63.143,260.512332 67.047,260.512332 C70.95,260.512332 74.115,263.677332 74.115,267.581332" id="Fill-192" fill="#F6F6F4"></path>
                <polygon id="Fill-194" fill="#D5D4CF" points="62.761 199.362332 71.333 199.362332 71.333 197.224332 62.761 197.224332"></polygon>
                <polygon id="Fill-195" fill="#D5D4CF" points="62.761 205.277332 71.333 205.277332 71.333 203.138332 62.761 203.138332"></polygon>
                <path d="M118.981,278.869332 L103.149,282.988332 C102.126,283.255332 101.038,282.479332 100.721,281.256332 L76.941,189.868332 C76.622,188.644332 77.195,187.437332 78.217,187.172332 L94.05,183.052332 C95.072,182.786332 96.16,183.560332 96.479,184.784332 L120.259,276.174332 C120.577,277.396332 120.004,278.603332 118.981,278.869332 Z" id="Fill-196" fill="#FFC3A0"></path>
                <polyline id="Fill-197" fill="#F6F6F4" points="97.561 254.590332 110.019 251.348332 94.637 192.235332 82.18 195.476332 97.561 254.590332"></polyline>
                <path d="M114.013,264.187332 C114.995,267.964332 112.73,271.823332 108.952,272.806332 C105.175,273.789332 101.315,271.524332 100.332,267.746332 C99.349,263.969332 101.615,260.109332 105.392,259.126332 C109.17,258.143332 113.031,260.409332 114.013,264.187332" id="Fill-198" fill="#F6F6F4"></path>
                <polyline id="Fill-200" fill="#D5D4CF" points="94.142 198.868332 85.846 201.026332 85.307 198.956332 93.604 196.798332 94.142 198.868332"></polyline>
                <polyline id="Fill-201" fill="#D5D4CF" points="95.631 204.592332 87.336 206.750332 86.797 204.680332 95.092 202.522332 95.631 204.592332"></polyline>
                <rect id="Rectangle-9" fill="#F6EBE0" x="0" y="283" width="136" height="10" rx="1"></rect>
                <rect id="Rectangle-9" fill="#F6EBE0" x="0" y="153" width="136" height="10" rx="1"></rect>
                <g id="Eucalyptus" transform="translate(126.500000, 76.500000) scale(1, -1) translate(-126.500000, -76.500000) translate(71.000000, 0.000000)">
                    <g id="plant">
                        <path d="M91.8272727,141.521367 C93.1893211,141.502912 94.4594302,140.869111 95.7869453,140.563014 C98.9200604,139.840536 103.765042,140.913225 103.952509,144.819111 C103.998703,145.771612 103.7332,146.74392 103.170351,147.512313 C102.855066,147.9431 102.4456,148.305464 101.979175,148.565647 C101.68766,148.728148 100.901915,148.820877 100.736872,149.029293 C100.642691,149.148131 100.645382,149.595122 100.589769,149.761675 C100.514424,149.986296 100.413515,150.202364 100.29646,150.40808 C100.054279,150.835715 99.7363028,151.225538 99.3640604,151.545589 C98.6550059,152.155082 97.749515,152.505293 96.8265332,152.643037 C95.560909,152.832097 94.2275635,152.627732 93.1135272,151.995732 C91.9994909,151.363732 91.122703,150.294644 90.7948606,149.053151 C90.4315879,147.679766 90.7383515,146.228507 91.0455636,144.841618 C91.2899879,143.737419 91.5828485,142.625567 91.8272727,141.521367" id="path1364" fill="#A4BDB9"></path>
                        <path d="M103.952733,144.819291 C103.998478,145.771792 103.732975,146.7441 103.170575,147.512043 C102.854842,147.94328 102.445375,148.305644 101.9794,148.565376 C101.692369,148.725627 100.928151,148.818356 100.746515,149.01957 C98.3565392,147.208197 94.6098969,144.264716 92.462103,142.226921 C92.2445878,142.020756 92.0257272,141.804237 91.8140424,141.578265 C91.8185272,141.55936 91.8230121,141.540454 91.8270485,141.521548 C93.1890969,141.503092 94.459206,140.869291 95.7867211,140.563194 C98.9198362,139.840716 103.764818,140.912955 103.952733,144.819291" id="path1368" fill="#AECCC7"></path>
                        <path d="M90.0379976,138.238884 C90.0379976,138.238884 90.0335127,138.301003 90.02544,138.41759 C90.0182643,138.555334 90.0196097,138.736741 90.0505552,138.971266 C90.0815006,139.203989 90.1501188,139.480377 90.2685188,139.77657 C90.3873673,140.071864 90.557343,140.384263 90.7735127,140.696662 C91.2049551,141.32281 91.8198278,141.939055 92.5028703,142.543146 C92.8374399,142.846542 93.1989187,143.15669 93.5621914,143.463687 C93.9263611,143.772035 94.300846,144.079932 94.6766763,144.385579 C96.1813429,145.605465 97.7214398,146.776735 98.8825671,147.646411 C100.044591,148.515186 100.828094,149.081465 100.828094,149.081465 C100.828094,149.081465 100.067016,148.485026 98.9395246,147.572587 C97.8133792,146.659248 96.3203732,145.430359 94.8677308,144.156906 C94.5053551,143.838656 94.1443248,143.517704 93.7940581,143.197653 C93.4428945,142.875801 93.1047369,142.562952 92.7791369,142.244251 C92.1306278,141.620804 91.5736097,140.998257 91.2058521,140.409021 C90.8336097,139.821134 90.6748461,139.276912 90.64704,138.901043 C90.6304461,138.713784 90.6371733,138.560736 90.6456945,138.471607 C90.6587006,138.362223 90.6658764,138.304154 90.6658764,138.304154 L90.6663248,138.298753 C90.6869551,138.124998 90.5631733,137.967448 90.3900582,137.947192 C90.216943,137.926485 90.0599733,138.050724 90.039343,138.224479 C90.0388946,138.228981 90.0384461,138.234382 90.0379976,138.238884" id="path1372" fill="#BAB89C"></path>
                        <path d="M36.078948,137.553407 C33.6450208,137.313481 31.3999057,135.662359 30.4388027,133.405344 C29.4772512,131.14833 29.8400755,128.378154 31.3492269,126.446592 C32.4085481,125.090763 33.9522329,124.173823 35.5842693,123.640404 C37.2167541,123.107436 38.9438692,122.933681 40.6588752,122.860758 C42.0222691,122.803139 43.5359054,122.747772 44.5068751,121.785367 C44.3566327,122.749122 44.672366,123.776347 45.159869,124.620364 C45.647372,125.463931 46.3048508,126.193162 46.9224144,126.946701 C47.8606447,128.091413 48.7217356,129.31625 49.3056628,130.678381 C49.8891416,132.040062 50.1855901,133.552091 49.9676265,135.018205 C49.6451659,137.190592 48.2270568,139.069487 46.5201235,140.443772 C45.796269,141.026706 44.9952751,141.54527 44.0956145,141.774843 C42.6514933,142.143509 41.0939055,141.719925 39.8273843,140.932626 C38.5608631,140.145327 37.0431904,138.693618 36.078948,137.553407" id="path1376" fill="#A4BDB9"></path>
                        <path d="M36.0791274,137.553587 L36.0791274,137.553587 C33.6452002,137.313661 31.3996366,135.662088 30.4385336,133.405074 C29.4774306,131.14806 29.8398064,128.378334 31.3489578,126.446772 C32.4087275,125.090943 33.9519638,124.173553 35.5844486,123.640584 C37.216485,123.107166 38.9436001,122.933861 40.6586061,122.860938 C42.0224485,122.802869 43.5360848,122.747952 44.5070545,121.785097 C44.4819393,121.945348 44.4743151,122.107399 44.4738666,122.269451 C44.1657575,124.016003 43.5706181,125.726545 42.7933939,127.320049 C41.2999394,130.381467 38.1852122,134.87794 36.0791274,137.553587" id="path1380" fill="#AECCC7"></path>
                        <path d="M44.1415393,120.755712 C44.1415393,120.755712 44.137503,120.830435 44.1298787,120.969979 C44.1244969,121.114025 44.1087999,121.308937 44.0886181,121.554714 C44.0639515,121.805444 44.0294181,122.111541 43.9760484,122.461301 C43.9222303,122.810612 43.8486787,123.204036 43.7536,123.630771 C43.5580606,124.483341 43.2638545,125.468703 42.8543879,126.494127 C42.7516848,126.748908 42.6431515,127.012691 42.5274424,127.266122 C42.4023151,127.524954 42.2794303,127.791438 42.1457818,128.046669 C41.8870061,128.563882 41.5986303,129.086048 41.3089091,129.603261 C40.1379152,131.671216 38.826994,133.664446 37.8143153,135.135962 C37.3066304,135.871045 36.8733941,136.476936 36.5648365,136.897369 C36.254485,137.316452 36.0773335,137.555928 36.0773335,137.555928 C36.0773335,137.555928 36.2648001,137.324104 36.5926426,136.918976 C36.9191395,136.511597 37.378388,135.924612 37.9179153,135.211136 C38.9947273,133.781933 40.3917576,131.844971 41.6600727,129.813478 C41.9753576,129.303466 42.2861576,128.794355 42.5754303,128.27309 C42.7252242,128.014258 42.8570788,127.757227 42.9934182,127.503347 C43.1324485,127.241364 43.2638545,126.989734 43.3894303,126.734053 C43.8903878,125.716281 44.2738424,124.720566 44.5465211,123.84639 C44.6801696,123.407951 44.7895999,123.001472 44.874812,122.637307 C44.9600242,122.272692 45.0214666,121.95219 45.068109,121.685706 C45.112509,121.41337 45.1447999,121.200902 45.1604969,121.06586 C45.1788848,120.927216 45.1887514,120.852942 45.1887514,120.852942 C45.2268726,120.563951 45.0241575,120.298817 44.7357817,120.260555 C44.4478545,120.222293 44.1832484,120.425757 44.1451272,120.715199 C44.1437818,120.728253 44.1424363,120.742657 44.1415393,120.755712" id="path1384" fill="#BAB89C"></path>
                        <path d="M65.9982685,141.034448 C65.5762443,142.031064 64.829517,142.885884 63.8827655,143.37744 C63.351311,143.653377 62.759311,143.810027 62.1601353,143.832534 C61.7852019,143.846938 60.9451898,143.531839 60.6760989,143.658329 C60.5222686,143.730802 60.305202,144.189047 60.1670686,144.329491 C59.9804989,144.519901 59.7719535,144.688255 59.5526444,144.837702 C59.0969838,145.14785 58.5839172,145.380574 58.0502202,145.513366 C57.0339536,145.766346 55.9459293,145.651559 54.9449112,145.311702 C53.5725476,144.844904 52.3248628,143.940568 51.5099658,142.71438 C50.6946204,141.488192 50.3344871,139.938802 50.6134446,138.499696 C50.9220022,136.907543 51.9458931,135.584574 52.9388385,134.328226 C53.7295173,133.32756 54.5722203,132.344449 55.3624506,131.344232 C56.7487172,132.035201 58.3444263,132.050055 59.8369838,132.429526 C63.3598322,133.324859 67.7303169,136.946255 65.9982685,141.034448" id="path1388" fill="#A4BDB9"></path>
                        <path d="M65.9983133,141.034493 C65.5762891,142.031109 64.8295619,142.885929 63.8828104,143.377485 C63.3513558,143.653422 62.7593558,143.810072 62.1601801,143.832579 C61.7879377,143.846533 60.9573438,143.536835 60.6824226,143.656123 C59.2602771,140.762157 57.8775984,137.181724 56.617356,134.213935 C56.2415257,133.328505 55.8719742,132.42822 55.6809197,131.488773 C56.9895984,132.038397 58.4570408,132.07891 59.8370286,132.429571 C63.359877,133.324904 67.7299133,136.9463 65.9983133,141.034493" id="path1392" fill="#AECCC7"></path>
                        <path d="M55.1125997,129.286766 C55.1125997,129.286766 55.1049754,129.350236 55.0901754,129.469524 C55.0767209,129.596464 55.0610239,129.776071 55.0596785,130.006544 C55.057436,130.236116 55.0690966,130.513854 55.1108057,130.827154 C55.1220179,130.907279 55.132333,130.981552 55.1484785,131.072481 C55.1637269,131.150806 55.1744906,131.221928 55.1951209,131.313307 C55.2318966,131.492014 55.2745027,131.664869 55.3265269,131.847626 C55.5296906,132.576407 55.8718845,133.368658 56.2602724,134.180265 C56.640139,134.993672 57.0280784,135.863347 57.4196057,136.737074 C58.1995208,138.483626 58.9866117,140.229729 59.6109026,141.522538 C59.9208056,142.170293 60.191242,142.703712 60.3805026,143.07688 C60.5737995,143.448247 60.6841268,143.660264 60.6841268,143.660264 C60.6841268,143.660264 60.5868056,143.441945 60.4163814,143.059774 C60.249545,142.676253 60.011848,142.127979 59.7418602,141.464019 C59.1969511,140.1379 58.5174966,138.351735 57.8434238,136.561068 C57.5025754,135.666185 57.1612784,134.771752 56.8419572,133.933136 C56.5275693,133.097222 56.2723815,132.319826 56.1472542,131.650014 C56.1154118,131.483911 56.0898481,131.319609 56.0732542,131.175564 C56.0633875,131.106692 56.0571087,131.018914 56.049036,130.944191 C56.0445512,130.874869 56.0400663,130.807347 56.03603,130.741626 C56.0239209,130.474242 56.0346845,130.242418 56.0530724,130.054259 C56.0705633,129.86655 56.0965754,129.719353 56.1154118,129.624373 C56.136939,129.522641 56.1485996,129.468173 56.1485996,129.468173 L56.1499451,129.461871 C56.2104906,129.176481 56.0293027,128.896042 55.7449633,128.834823 C55.4606239,128.773604 55.1812179,128.955461 55.1202239,129.240852 C55.1170845,129.256156 55.1143936,129.271911 55.1125997,129.286766" id="path1396" fill="#BAB89C"></path>
                        <path d="M2.22883736,87.0279791 C0.823285878,88.3531984 0.508001037,90.5760018 1.12242526,92.4107824 C1.73684949,94.245563 3.14015855,95.7224803 4.72331002,96.8280301 C7.2648736,98.6020415 10.5145947,99.5554432 13.5122674,98.7811982 C15.4196734,98.2887424 17.118534,97.1273749 18.4316976,95.6540587 C19.7448612,94.1807425 20.6893702,92.4053807 21.3786914,90.5534947 C21.8123763,89.3898765 22.1563641,88.174942 22.8272974,87.1301614 C23.4977823,86.085831 24.5835641,85.020794 25.8908974,84.4095005 C23.9283277,83.5974436 22.2384369,82.8475063 20.8544126,81.2319451 C19.4703884,79.6163839 18.1720248,77.8927885 16.481237,76.6049309 C13.4059765,74.2628398 9.12025537,73.6258883 5.50098273,74.9731646 C4.08242519,75.5011817 2.75446159,76.3253925 1.76510404,77.474156 C0.77619497,78.6229195 0.145176804,80.1106402 0.159079834,81.6289707 C0.175225288,83.4128852 1.24620708,85.5411586 2.22883736,87.0279791" id="path1400" fill="#A4BDB9"></path>
                        <path d="M24.2382307,85.2179564 C22.5828732,85.6680988 20.8544126,85.7585774 19.1416491,85.8463552 C15.2945461,86.0435176 6.07594029,86.8308167 2.22883736,87.0279791 C1.24620708,85.5411586 0.175225288,83.4128852 0.159079834,81.6289707 C0.145176804,80.1106402 0.77619497,78.6229195 1.76510404,77.474156 C2.75446159,76.3253925 4.08242519,75.5007315 5.50098273,74.9731646 C9.12025537,73.6258883 13.4059765,74.2628398 16.481237,76.6049309 C18.1720248,77.8927885 19.4708369,79.6163839 20.8544126,81.2319451 C22.2384369,82.8475063 23.9283277,83.5974436 25.8908974,84.4095005 C25.515964,84.5846059 25.1621095,84.8002242 24.8284368,85.0387997 C24.6328974,85.1040703 24.4360126,85.1639393 24.2382307,85.2179564" id="path1404" fill="#AECCC7"></path>
                        <path d="M28.1468658,82.2317564 C28.1468658,82.2317564 28.0809385,82.3154829 27.9571567,82.4730328 C27.8993022,82.5392037 27.8270961,82.6215798 27.742781,82.7179103 C27.6503931,82.8137906 27.5454476,82.9258761 27.417181,83.0420128 C26.9153264,83.5137621 26.0847325,84.104349 24.9397507,84.54999 C24.371072,84.7732606 23.7270477,84.9618703 23.0256174,85.1045655 C22.3259811,85.2495113 21.5720781,85.352594 20.7845387,85.4291182 C19.9978963,85.5060925 19.1722357,85.5641609 18.33626,85.62448 C17.4998358,85.6938019 16.649957,85.7644743 15.8000782,85.8346965 C12.4077389,86.1421438 9.0158481,86.4495911 6.47159362,86.680064 C5.19879365,86.7880982 4.13857549,86.8781267 3.39633309,86.9411466 C2.65319371,86.9965141 2.22892705,87.0280241 2.22892705,87.0280241 C2.22892705,87.0280241 2.65409068,87.0104686 3.39857551,86.9794087 C4.14261186,86.9411466 5.2059694,86.8857791 6.48146028,86.8200583 C9.03154507,86.6733119 12.4315086,86.4774999 15.8314722,86.2821381 C16.680454,86.2398247 17.5298842,86.1975113 18.36586,86.1560982 C19.2027327,86.117386 20.0257024,86.107933 20.8311811,86.0665199 C21.6353144,86.0273575 22.417472,85.9589358 23.1579205,85.8432492 C23.897472,85.7293632 24.5957629,85.5623603 25.227678,85.3489928 C25.8582477,85.1360754 26.4201992,84.8803945 26.8969386,84.6085085 C27.3741264,84.3361723 27.7669991,84.0512322 28.0733143,83.7933006 C28.2280416,83.6654601 28.3576537,83.5412208 28.4711203,83.4331866 C28.58369,83.3211011 28.6819082,83.2157678 28.7559082,83.1369929 C28.8868658,82.985745 28.9568294,82.9051695 28.9568294,82.9051695 C29.1474355,82.6850499 29.1241143,82.3519445 28.9052537,82.1601838 C28.6859446,81.9688732 28.3536173,81.9922807 28.1630113,82.2119502 C28.1580779,82.2182522 28.1517991,82.2254544 28.1468658,82.2317564" id="path1408" fill="#BAB89C"></path>
                        <path d="M60.8741498,112.94619 C62.5407195,111.93292 63.3174952,109.802846 63.0945983,107.860481 C62.8717013,105.917666 61.7939922,104.161661 60.4606468,102.735609 C58.3209257,100.446635 55.30935,98.81847 52.1847561,98.951262 C50.1966228,99.0358888 48.2744168,99.8254386 46.6683926,101.004362 C45.0623684,102.183285 43.756829,103.738077 42.6880897,105.42251 C42.0162594,106.481695 41.4215685,107.609752 40.5398473,108.500134 C39.6585746,109.390965 38.4023686,110.025666 37.1735201,109.791142 C38.9427928,111.007427 40.225011,112.857062 41.2542837,114.74541 C42.2835564,116.633757 43.2060897,118.610783 44.6076048,120.240299 C47.1558956,123.203136 51.257738,124.736771 55.1165015,124.168692 C56.6287924,123.946321 58.1137257,123.412002 59.3318105,122.485159 C60.5498953,121.558766 61.4849862,120.221393 61.7890589,118.718367 C62.1465013,116.952008 61.533871,114.622521 60.8741498,112.94619" id="path1412" fill="#A4BDB9"></path>
                        <path d="M63.0945534,107.860391 C63.3174504,109.803206 62.5406746,111.93328 60.874105,112.9461 C55.1478506,113.852237 44.0568206,113.127508 39.0360328,110.811075 C38.4669055,110.548192 37.8865662,110.248397 37.3335844,109.906739 C37.2802147,109.868477 37.2277419,109.828414 37.1734753,109.791052 C38.4023237,110.025576 39.6585298,109.390875 40.5398025,108.500494 C41.4215237,107.609662 42.0162145,106.481605 42.6880448,105.42287 C43.7572327,103.738437 45.0623236,102.183195 46.6683478,101.004272 C48.274372,99.8253486 50.196578,99.0357987 52.1847113,98.951172 C55.3093051,98.8188301 58.3208808,100.446545 60.460602,102.735519 C61.7939474,104.161571 62.8716564,105.917576 63.0945534,107.860391" id="path1416" fill="#AECCC7"></path>
                        <path d="M33.6404463,105.778707 C33.6404463,105.778707 33.6444826,105.807517 33.6525554,105.862884 C33.6615251,105.920052 33.6682523,105.992525 33.6965069,106.127118 C33.7453917,106.383249 33.8328463,106.723106 34.019416,107.139938 C34.2023978,107.553169 34.492119,108.019066 34.891719,108.476411 C35.291319,108.934656 35.8007977,109.380747 36.3945917,109.790827 C36.9879371,110.201807 37.6642522,110.579477 38.3975249,110.922935 C38.5836461,111.009363 38.7616946,111.090838 38.9639613,111.176365 C39.1550158,111.25289 39.3348582,111.336616 39.5420582,111.409989 C39.9483855,111.563938 40.3556097,111.702132 40.777634,111.825921 C42.4616945,112.32828 44.2924096,112.667237 46.1294035,112.913915 C49.8060822,113.40412 53.5132579,113.493699 56.2817548,113.386565 C57.666676,113.334348 58.8170396,113.228565 59.618482,113.130434 C60.0194274,113.079117 60.3338153,113.035904 60.5468456,112.999442 C60.7603244,112.964781 60.8742395,112.946325 60.8742395,112.946325 C60.8742395,112.946325 60.7598759,112.96073 60.5455001,112.988639 C60.3311244,113.017898 60.0158395,113.050759 59.6144456,113.08857 C58.8107608,113.160593 57.6599487,113.228115 56.2781669,113.234417 C53.5163973,113.250622 49.8258156,113.038155 46.2011611,112.432263 C44.3915248,112.128867 42.594446,111.732741 40.9781067,111.19167 C40.5740219,111.058428 40.1798037,110.909431 39.8120461,110.755932 C39.6286158,110.68571 39.4371128,110.58983 39.253234,110.508354 C39.0828098,110.430029 38.8993795,110.335049 38.7298522,110.246821 C38.041428,109.887157 37.419828,109.501836 36.8915129,109.099858 C36.3623007,108.698781 35.9277189,108.280149 35.6048099,107.87367 C35.2805553,107.467642 35.0643856,107.078269 34.934325,106.745613 C34.802919,106.416109 34.7446159,106.132069 34.7199493,105.961465 C34.7051493,105.88314 34.698422,105.789061 34.6925917,105.735494 C34.6872099,105.679676 34.684519,105.650867 34.684519,105.650867 C34.6553675,105.360975 34.3979372,105.148958 34.1086644,105.178217 C33.8198402,105.207027 33.6090523,105.465408 33.6377554,105.75575 C33.6382038,105.762502 33.6395493,105.771955 33.6404463,105.778707" id="path1420" fill="#BAB89C"></path>
                        <path d="M26.0810998,74.5376518 C26.0810998,74.5376518 26.326421,76.3625292 26.7560695,79.5558397 C26.978518,81.1542955 27.2552331,83.0975604 27.6198513,85.3253153 C27.9853664,87.5526201 28.4387846,90.0648651 29.0428937,92.7895773 C29.3518997,94.1503578 29.6914027,95.5651555 30.0887603,97.0200159 C30.1847361,97.3846313 30.2946148,97.7487965 30.3982148,98.1179133 C30.4506876,98.3024717 30.5036088,98.4874802 30.55653,98.6729389 C30.6134876,98.8592979 30.6704451,99.0465572 30.7278512,99.2342666 C30.8422148,99.6020329 30.9494027,99.9675486 31.072736,100.345218 C31.1978633,100.724238 31.3238875,101.105959 31.4508087,101.49038 C31.9719481,103.013212 32.5540814,104.556751 33.2124572,106.112893 C33.8766632,107.666335 34.6224935,109.226078 35.4548814,110.774568 C37.1124813,113.873349 39.1705783,116.908659 41.6439721,119.664431 L42.1117418,120.178494 L42.3561661,120.444978 L42.5934145,120.688055 L43.06836,121.175109 C43.2266751,121.337611 43.4029297,121.502363 43.569766,121.665765 C44.2442872,122.327924 44.9345054,122.939218 45.6440084,123.549611 C47.0630144,124.760494 48.5658871,125.874146 50.1122628,126.912625 C51.6595355,127.951103 53.2570385,128.905405 54.8832445,129.782733 C55.6950021,130.224323 56.5152808,130.644756 57.3391475,131.048984 L57.6472566,131.202032 L57.9715111,131.351029 L58.5890747,131.634619 C59.0003353,131.823229 59.4111474,132.011838 59.8210626,132.199998 L60.4350383,132.481787 C60.6413414,132.573616 60.8561656,132.655992 61.0660565,132.74377 C61.4876322,132.916175 61.9087595,133.088129 62.3285413,133.259633 C62.7492201,133.428437 63.165414,133.607593 63.5860928,133.766494 C64.008117,133.918192 64.4287958,134.06989 64.8485776,134.221137 C65.2683594,134.371935 65.6867958,134.522733 66.1034382,134.67263 L66.4160321,134.785166 L66.7322139,134.884647 L67.3627836,135.08226 C67.7825654,135.213702 68.2005533,135.345143 68.6171957,135.475684 C69.0342866,135.604875 69.4464442,135.742619 69.8671229,135.847952 C70.7030987,136.072123 71.5318987,136.294944 72.3530744,136.515513 C73.1800804,136.712676 74.0030501,136.890482 74.8148077,137.075491 C75.6234258,137.273103 76.4387713,137.396892 77.2375228,137.549491 C77.6375712,137.622414 78.0353773,137.695337 78.4300439,137.76736 C78.8247106,137.841183 79.2220682,137.883946 79.6135954,137.943365 C82.7449166,138.440773 85.7394498,138.636585 88.4971831,138.756773 C89.8780679,138.777479 91.2006497,138.831046 92.4590981,138.78063 C93.0878739,138.767126 93.7005042,138.754072 94.296092,138.741468 C94.8907829,138.705006 95.4684314,138.669445 96.0281405,138.635234 C96.5874011,138.596972 97.1296192,138.574015 97.6512071,138.52675 C98.171898,138.472733 98.674201,138.420966 99.1567707,138.371451 C99.6388919,138.321485 100.10128,138.27377 100.543486,138.227855 C100.983449,138.164835 101.403231,138.104516 101.801486,138.047348 C102.596649,137.92806 103.309292,137.838482 103.924613,137.729998 C104.538589,137.614761 105.060625,137.51663 105.484443,137.436955 C106.330734,137.278055 106.782358,137.193428 106.782358,137.193428 L106.683243,136.690169 C106.683243,136.690169 106.232964,136.765343 105.388916,136.905337 C104.96734,136.975559 104.447098,137.061986 103.835365,137.163719 C103.222734,137.258699 102.51368,137.332522 101.722104,137.434704 C101.32654,137.48332 100.909449,137.534186 100.471728,137.587753 C100.032662,137.623764 99.5729646,137.661576 99.0935343,137.700739 C98.6145525,137.740351 98.1162859,137.781314 97.5991829,137.823627 C97.0816314,137.860089 96.5434495,137.871343 95.9891223,137.897451 C95.4343465,137.919958 94.8620799,137.942915 94.2727708,137.966773 C93.6825648,137.967223 93.0762133,137.967673 92.4532678,137.967673 C91.2078254,137.991981 89.9000437,137.910955 88.5357528,137.86234 C85.8121044,137.686334 82.8606256,137.432003 79.7826742,136.876528 C79.3978742,136.809907 79.0076924,136.759941 78.619753,136.678465 C78.2318136,136.59924 77.8416318,136.519565 77.4487591,136.438989 C76.6648076,136.272437 75.8647107,136.134243 75.072238,135.922226 C74.2766259,135.723263 73.4702501,135.531952 72.660735,135.320835 C71.8579471,135.087212 71.0470865,134.851337 70.2294987,134.613212 C69.8186866,134.501576 69.4159472,134.35708 69.008723,134.221588 C68.6019472,134.084744 68.193826,133.947451 67.7843594,133.809257 L67.1690382,133.602192 L66.8604806,133.498209 L66.5559594,133.381622 C66.1496321,133.225422 65.7424079,133.069223 65.3333897,132.912123 C64.92482,132.755474 64.5149049,132.598374 64.1040928,132.440374 C63.6959716,132.276972 63.2972686,132.094665 62.8918383,131.92226 C62.4877534,131.747155 62.0827716,131.572049 61.6768928,131.396494 C61.4741777,131.306915 61.2705656,131.224989 61.0678504,131.129109 L60.459705,130.834716 C60.0542747,130.638004 59.647499,130.441291 59.2402747,130.243679 L58.6285414,129.947485 L58.3374747,129.806591 L58.0387838,129.650841 C57.2409293,129.238061 56.4480081,128.810425 55.6649536,128.363434 C54.0966021,127.474403 52.5632325,126.514249 51.0872689,125.478021 C49.6117537,124.441793 48.1860205,123.338494 46.8499841,122.149218 C46.186675,121.554129 45.5242629,120.941485 44.9138751,120.316688 C44.7595963,120.158688 44.605766,120.010591 44.4510387,119.844938 L43.98596,119.347981 L43.7540933,119.099953 L43.5450994,118.860927 L43.1105175,118.362619 C40.8120328,115.691924 38.9077661,112.757446 37.3806753,109.753645 C36.6137662,108.25332 35.9284814,106.740842 35.3207844,105.232865 C34.7184693,103.723537 34.1870147,102.219161 33.7156572,100.744494 C33.602639,100.376728 33.4905178,100.011663 33.3788451,99.6488477 C33.2680693,99.2842324 33.1653663,98.9056626 33.0590754,98.5387965 C33.0083966,98.3587395 32.9577178,98.1791327 32.907039,98.0004261 C32.8594996,97.8190187 32.8119602,97.6385116 32.7644208,97.4589048 C32.6715845,97.0987908 32.5724693,96.7440786 32.4868087,96.3880159 C32.1302633,94.9682667 31.828433,93.5840787 31.5544087,92.2512069 C31.0207118,89.5818622 30.6269421,87.1101301 30.3125542,84.910284 C29.9990633,82.7104379 29.7649542,80.7815776 29.5770391,79.1907742 C29.2155603,76.0010649 29.0428937,73 29.0428937,73 L26.0810998,74.5376518 Z" id="path1424" fill="#8B7D7C"></path>
                        <path d="M28.4750892,0.790560831 C28.4515863,1.11842687 28.4243335,1.50348971 28.3936434,1.94301625 C28.3059992,3.19820624 28.2083563,4.63843809 28.1032146,6.24185014 C27.8028566,10.8223094 27.5025144,15.7929731 27.2221866,20.9790371 C26.8154056,28.5044853 26.4860337,35.8379015 26.2617601,42.737932 C25.78072,57.5376746 25.5711514,68.5759561 26.2617601,76 L29.2601767,76 C28.5844507,68.735946 28.7829969,57.5163662 29.2601767,42.8353904 C29.4836913,35.9587108 29.8121209,28.6462738 30.2178134,21.1409629 C30.4974856,15.9670269 30.7971434,11.0076906 31.0967854,6.43814986 C31.2016437,4.83906191 31.2990008,3.40304376 31.3863566,2.15198375 C31.4169165,1.71432279 31.4440387,1.33110438 31.4674108,1.00506417 C31.4910667,0.676683944 31.4910667,0.676683944 31.4959762,0.609796417 L28.5040238,0.390203583 C28.4989333,0.459566056 28.4989333,0.459566056 28.4750892,0.790560831 Z" id="Path-11" fill="#8B7D7C" fill-rule="nonzero"></path>
                        <path d="M13.0066904,119.02883 C12.7169692,120.962642 13.8516359,122.924363 15.4823267,123.994802 C17.1130176,125.06479 19.1468963,125.356482 21.0919751,125.239896 C24.2134295,125.052636 27.3864598,123.76973 29.2831021,121.273691 C30.4899748,119.685588 31.1142657,117.697759 31.238496,115.704528 C31.3627263,113.711298 31.0061809,111.709514 30.3993809,109.807662 C30.0181688,108.611634 29.5347021,107.431811 29.4158536,106.181765 C29.2974537,104.93217 29.6145324,103.556984 30.5801203,102.758432 C28.51709,103.345868 26.2804962,103.152756 24.1757568,102.739076 C22.0710175,102.325845 19.9667266,101.77307 17.8225206,101.812682 C13.9233934,101.884255 10.1256238,104.068346 8.09264206,107.409303 C7.29613299,108.718318 6.75570876,110.206038 6.68664209,111.738323 C6.61757543,113.271058 7.04363603,114.847457 8.00025418,116.043486 C9.12460567,117.44883 11.3006541,118.465702 13.0066904,119.02883" id="path1428" fill="#A4BDB9"></path>
                        <path d="M30.3491057,102.976166 C29.9660997,103.374542 29.7091179,103.87555 29.5593239,104.417522 C28.4717482,106.198735 27.0639543,107.808895 25.5005362,109.185881 C22.3091181,111.99657 16.7833364,117.082279 13.0066456,119.028695 C11.3006093,118.465567 9.12500931,117.449145 8.00020933,116.043801 C7.04359118,114.847322 6.61753058,113.270923 6.68659725,111.738638 C6.75566391,110.205903 7.29608814,108.718183 8.09259721,107.409168 C10.125579,104.068661 13.9233486,101.88412 17.8224758,101.812547 C19.9666818,101.772935 22.0709726,102.32571 24.175712,102.739391 C26.231118,103.143168 28.4112028,103.334929 30.4338694,102.796559 C30.4056148,102.856428 30.3778088,102.916747 30.3491057,102.976166" id="path1432" fill="#AECCC7"></path>
                        <path d="M31.2007336,98.2967549 C31.2007336,98.2967549 31.1886245,98.4083902 31.1657518,98.6177065 C31.1419821,98.8229714 31.1038609,99.1034101 31.0347942,99.4801794 C30.8948669,100.222464 30.62757,101.281199 30.1028427,102.48353 C29.8427215,103.08492 29.5202609,103.720971 29.133667,104.369627 C28.7475215,105.017832 28.2963458,105.678641 27.7873155,106.330897 C27.2782852,106.983154 26.7114004,107.627758 26.0965277,108.246253 C25.4874853,108.865199 24.8066853,109.453535 24.149655,110.065729 C22.8288671,111.278863 21.5049399,112.485695 20.2411096,113.592145 C19.6082975,114.143569 18.9920794,114.672037 18.4000794,115.163592 C17.8080794,115.655148 17.241643,116.111592 16.7110855,116.523022 C16.1809764,116.935353 15.6840552,117.298168 15.2414007,117.617319 C14.7920189,117.926566 14.4004916,118.197552 14.0663704,118.401467 C13.738528,118.616635 13.4680916,118.763831 13.2860068,118.868714 C13.1039219,118.973148 13.0066007,119.028965 13.0066007,119.028965 C13.0066007,119.028965 13.1057159,118.976299 13.2913886,118.878167 C13.4766128,118.779586 13.752431,118.640942 14.0874492,118.436578 C14.4291946,118.243017 14.8296916,117.984635 15.2902855,117.689791 C15.7441522,117.385045 16.2545279,117.037985 16.799437,116.64186 C17.3447946,116.247085 17.9278248,115.808646 18.5373157,115.335546 C19.1468066,114.862447 19.7818612,114.353786 20.4344066,113.821717 C21.7368066,112.75578 23.1028914,111.590361 24.4631459,110.421341 C24.8035459,110.129649 25.1439459,109.838407 25.4830004,109.547615 C25.8216065,109.259074 26.1673883,108.96378 26.4925398,108.658584 C27.1482246,108.051342 27.758164,107.41304 28.3120428,106.761233 C28.8650246,106.109427 29.3610488,105.443666 29.7920427,104.783758 C30.2234851,104.124299 30.5894488,103.470692 30.8899336,102.847695 C31.4962851,101.601701 31.8308548,100.480396 32.0142851,99.6872449 C32.1035336,99.2938204 32.1622851,98.963866 32.1959215,98.7518489 C32.2268669,98.5434329 32.2434608,98.4322478 32.2434608,98.4322478 C32.2869639,98.1441566 32.0891821,97.8754216 31.8021518,97.8317578 C31.514673,97.7885441 31.2469275,97.9866068 31.2034245,98.2751481 C31.2025275,98.2814501 31.2016306,98.2904529 31.2007336,98.2967549" id="path1436" fill="#BAB89C"></path>
                        <path d="M52.8325476,85.6724202 C54.0398688,83.0687963 53.7178567,79.8165172 52.0243779,77.5018848 C50.3308992,75.1872523 47.3350205,73.9056968 44.4988024,74.2829162 C42.5079782,74.5475999 40.6687419,75.562221 39.1627298,76.8955429 C37.6562692,78.2288648 36.4547783,79.8718847 35.3613723,81.5626197 C34.4922087,82.906745 33.536039,84.4043689 31.9928027,84.8139985 C33.0489845,85.2353319 33.8930329,86.1653261 34.4496026,87.1605911 C35.0066208,88.1554059 35.3470208,89.2542036 35.7358571,90.3264428 C36.3269601,91.9564086 37.0440874,93.5557647 38.0634934,94.9561578 C39.083348,96.356551 40.4247661,97.5552803 42.025857,98.2075367 C44.3978933,99.1735423 47.127372,98.8575423 49.5218325,97.9491549 C50.5380992,97.563833 51.5346325,97.0623743 52.3006446,96.2890296 C53.529493,95.048437 54.0308991,93.2222092 53.9941233,91.4729556 C53.9573476,89.7237021 53.4030203,87.3253432 52.8325476,85.6724202" id="path1440" fill="#A4BDB9"></path>
                        <path d="M52.8325476,85.6723752 C48.4912144,85.9559649 39.9238085,86.2769164 35.5883056,85.9109506 C34.6101602,85.8285746 33.8109602,85.7218908 33.0875542,85.479264 C32.7552269,85.2015262 32.3888148,84.9719535 31.9928027,84.8139535 C33.536039,84.4043239 34.4922087,82.9067 35.3613723,81.5625747 C36.4547783,79.8718397 37.6562692,78.2288198 39.1627298,76.8954979 C40.6687419,75.562176 42.5079782,74.5475549 44.4988024,74.2828712 C47.3350205,73.9056518 50.3308992,75.1872073 52.0243779,77.5018397 C53.7178567,79.8164722 54.0398688,83.0687513 52.8325476,85.6723752" id="path1444" fill="#AECCC7"></path>
                        <path d="M28.3959094,81.7523547 C28.3959094,81.7523547 28.4542125,81.8347308 28.5631943,81.9891297 C28.6717276,82.1421781 28.8417034,82.3785029 29.0574246,82.6643433 C29.2762852,82.9515342 29.5467215,83.2981439 29.8830852,83.6807649 C30.2203457,84.0615854 30.6230851,84.4833689 31.1321154,84.881745 C31.6380063,85.2787706 32.2690245,85.6424857 32.9794245,85.8549529 C33.6880305,86.0755227 34.4437275,86.1619501 35.2048062,86.218668 C35.5869153,86.2479273 35.9757517,86.2632321 36.3610001,86.2839387 C36.7516304,86.2969928 37.1507819,86.3109472 37.5490365,86.3172492 C38.3450971,86.3289529 39.1528183,86.3307535 39.9596425,86.3194999 C40.7664667,86.3104971 41.5728424,86.2920412 42.3657636,86.2668333 C43.1591333,86.243876 43.9390484,86.2132663 44.6938484,86.1804059 C46.2034484,86.1151353 47.6107938,86.0377108 48.8167695,85.962537 C51.2282725,85.8126395 52.8325028,85.6726452 52.8325028,85.6726452 C52.8325028,85.6726452 51.2237876,85.7505199 48.8100423,85.8072378 C47.6031696,85.8360469 46.1949272,85.8585541 44.6862242,85.8662065 C43.9323212,85.8698076 43.1528545,85.8702578 42.3612788,85.8626053 C41.569703,85.8567535 40.7660182,85.8441495 39.9632304,85.8220925 C39.159994,85.8027364 38.3581031,85.769876 37.5701153,85.7280128 C37.1763456,85.7064059 36.7906486,85.6780469 36.4058486,85.6505883 C36.0161153,85.6136766 35.6389396,85.586668 35.2698365,85.5398532 C34.5307335,85.4511752 33.8310972,85.3341381 33.2247457,85.1131182 C32.6157033,84.8988504 32.1071215,84.572047 31.6788184,84.2051809 C31.2505154,83.8378647 30.8998003,83.437688 30.6029033,83.0690214 C30.3064548,82.6990043 30.064273,82.3577963 29.8678367,82.0742066 C29.6709518,81.7870157 29.5269882,81.5659958 29.4233882,81.4052949 C29.3215821,81.2459445 29.266867,81.1608676 29.266867,81.1608676 C29.1098973,80.9159901 28.7842973,80.8448676 28.5403215,81.0028676 C28.2958973,81.1604174 28.2250367,81.4872208 28.3824549,81.7320983 C28.3864912,81.7384003 28.3918731,81.7465029 28.3959094,81.7523547" id="path1448" fill="#BAB89C"></path>
                        <path d="M60.0487135,131.789918 C62.0458165,130.338209 63.2683861,128.072192 64.9156709,126.230659 C68.803586,121.884534 77.0897918,118.405833 81.4226039,123.992101 C82.4787857,125.353782 83.0954523,127.070625 83.060022,128.796471 C83.0398402,129.764727 82.8102159,130.729383 82.3899857,131.601308 C82.1271735,132.147331 81.0597796,133.106585 81.0319736,133.587337 C81.0158281,133.861474 81.4840463,134.520932 81.5741917,134.825229 C81.6961796,135.236659 81.7706281,135.662043 81.8118887,136.089229 C81.8966523,136.975559 81.8307251,137.884847 81.6118645,138.74822 C81.1952221,140.39169 80.2179736,141.856904 78.994507,143.026374 C77.3176221,144.629781 75.1308101,145.721376 72.825598,145.950949 C70.5208344,146.180072 68.1129193,145.514311 66.3387133,144.019838 C64.3756952,142.366465 63.3226528,139.896983 62.3377801,137.522482 C61.5538286,135.631884 60.8331135,133.680516 60.0487135,131.789918" id="path1452" fill="#A4BDB9"></path>
                        <path d="M83.0598426,128.796291 C83.0401093,129.764547 82.8100366,130.729203 82.3902547,131.601579 C82.1269941,132.147601 81.0600487,133.106855 81.0317942,133.587607 C81.0313457,133.59661 81.0326911,133.606963 81.0331396,133.616866 C73.5142913,134.57792 66.1429945,133.480473 60.3503644,131.557915 C62.1716613,130.104405 63.3534189,127.977032 64.91594,126.230479 C68.8038551,121.884804 77.0896125,118.405653 81.4224245,123.991921 C82.4786063,125.353602 83.0952729,127.070895 83.0598426,128.796291" id="path1456" fill="#AECCC7"></path>
                        <path d="M58.0977596,131.306735 C58.0977596,131.306735 58.4399535,131.426023 59.0386808,131.634439 C59.3337838,131.742473 59.7167899,131.852758 60.1419535,131.990502 C60.5693595,132.132296 61.0550686,132.256986 61.5824868,132.410034 C62.1116989,132.55318 62.6884504,132.698576 63.2992867,132.843071 C63.911917,132.979465 64.5572867,133.126661 65.2309109,133.247749 C65.9013958,133.385043 66.6014806,133.484975 67.3091897,133.600661 C68.0213836,133.69204 68.7420987,133.797824 69.4681957,133.861294 C70.1916017,133.94412 70.9190441,133.984182 71.633032,134.035949 C71.9909229,134.050804 72.3456744,134.065208 72.6963895,134.079613 C72.8717471,134.086365 73.0457592,134.093117 73.2188744,134.099869 C73.391541,134.10122 73.5637592,134.10257 73.7341834,134.10392 C74.0745834,134.106171 74.4096016,134.108422 74.737444,134.110222 C75.0652864,134.10212 75.3855046,134.094467 75.6976501,134.086365 C76.321941,134.078712 76.9103531,134.033248 77.4534682,134.001738 C77.9974803,133.97743 78.4930561,133.91351 78.9330197,133.876148 C79.1527773,133.853641 79.3590803,133.837436 79.5487894,133.814479 C79.73805,133.789271 79.9125106,133.765863 80.0694803,133.745157 C80.6978075,133.661881 81.0570439,133.614165 81.0570439,133.614165 C81.0570439,133.614165 80.6960136,133.645225 80.0649954,133.700143 C79.9071287,133.713647 79.7326681,133.728952 79.5425106,133.745157 C79.3519045,133.760012 79.1456015,133.766764 78.9253954,133.778918 C78.4849833,133.796473 77.9889591,133.837436 77.4462924,133.836986 C76.9040743,133.843738 76.3170076,133.862194 75.6963046,133.841487 C75.3859531,133.835185 75.0670804,133.828883 74.7414804,133.822131 C74.4158804,133.805026 74.0835531,133.78792 73.7458441,133.769915 C73.5767653,133.760912 73.406341,133.751909 73.2350198,133.742906 C73.0636986,133.728502 72.8914804,133.713647 72.7179168,133.699242 C72.371238,133.669083 72.0200744,133.638473 71.6666683,133.607863 C70.9612017,133.524137 70.2440744,133.452114 69.532329,133.337778 C68.8183411,133.242348 68.1106321,133.105054 67.4127897,132.983066 C66.7194321,132.836769 66.0341473,132.707579 65.3802564,132.541926 C64.7227776,132.392929 64.0948988,132.218724 63.4988625,132.057573 C62.9055171,131.888319 62.3467049,131.719966 61.8340868,131.556114 C61.3250565,131.382809 60.8514565,131.237863 60.4469232,131.082564 C60.0383535,130.929516 59.6858444,130.811579 59.3902929,130.68824 C58.8014323,130.452365 58.4650687,130.317772 58.4650687,130.317772 C58.1955293,130.209738 57.8892141,130.34163 57.7815778,130.612165 C57.6739414,130.883151 57.8053475,131.190148 58.0753354,131.298183 C58.0820626,131.300883 58.0910323,131.304485 58.0977596,131.306735" id="path1460" fill="#BAB89C"></path>
                        <path d="M109.22974,138.155652 C109.523498,138.350564 109.83654,138.580587 109.91951,138.924046 C110.041498,139.428655 109.611401,139.894103 109.178613,140.179043 C108.575401,140.575618 107.888322,140.843453 107.176577,140.95914 C106.903449,141.003254 106.608795,141.021709 106.365716,140.889368 C106.051328,140.717413 105.912746,140.346046 105.798831,140.005288 C105.502831,139.118057 105.109061,137.616382 106.181389,137.055054 C107.175231,136.53514 108.46328,137.647442 109.22974,138.155652" id="path1464" fill="#A4BDB9"></path>
                        <path d="M109.178478,140.179043 C108.875751,140.378006 108.551945,140.544558 108.214684,140.67555 L107.544648,139.511481 C107.289012,139.067641 107.031581,138.619749 106.872369,138.132695 C106.742757,137.73792 106.675484,137.316587 106.483533,136.951071 C107.424903,136.752558 108.538939,137.697858 109.229606,138.155652 C109.523812,138.350564 109.836406,138.580587 109.919375,138.924046 C110.041363,139.428655 109.611266,139.894103 109.178478,140.179043" id="path1468" fill="#AECCC7"></path>
                        <path d="M106.345489,136.91578 C106.345489,136.91578 106.384059,136.974749 106.431598,137.069279 C106.481829,137.16831 106.543271,137.317307 106.60292,137.505467 C106.663465,137.694076 106.720871,137.920498 106.806532,138.163125 C106.848241,138.280162 106.899817,138.405752 106.955429,138.525039 C107.011041,138.646128 107.072483,138.766316 107.137065,138.884253 C107.398083,139.355102 107.686459,139.802994 107.891865,140.147803 C108.099962,140.489911 108.238992,140.718133 108.238992,140.718133 C108.238992,140.718133 108.111623,140.483609 107.92012,140.131148 C107.732204,139.777786 107.464907,139.312789 107.23035,138.836088 C107.172944,138.71635 107.118229,138.595712 107.069792,138.475074 C107.020459,138.353535 106.979198,138.236948 106.942423,138.11631 C106.872459,137.882236 106.825817,137.652213 106.773344,137.455951 C106.721768,137.258789 106.663914,137.094937 106.613683,136.982851 C106.560762,136.865814 106.528471,136.811347 106.528471,136.811347 L106.523538,136.803695 C106.493489,136.753729 106.428907,136.737524 106.379126,136.767683 C106.329344,136.797843 106.313647,136.862663 106.343247,136.912629 C106.344144,136.913529 106.345041,136.91488 106.345489,136.91578" id="path1472" fill="#BAB89C"></path>
                        <path d="M110.268476,135.378139 C110.468052,135.167022 110.653276,134.931147 110.738936,134.653409 C110.824597,134.375221 110.794549,134.047067 110.602149,133.829649 C110.398088,133.599176 110.068452,133.539307 109.764379,133.493392 C109.094343,133.39166 108.413991,133.289478 107.742161,133.375455 C107.069882,133.461432 106.394912,133.762127 106.005627,134.318503 C105.459373,135.09905 105.255312,137.02746 106.566682,137.073375 C107.836791,137.117939 109.427118,136.26672 110.268476,135.378139" id="path1476" fill="#A4BDB9"></path>
                        <path d="M110.738802,134.653319 C110.653141,134.931057 110.467917,135.167382 110.268341,135.378049 C109.427432,136.26663 107.837105,137.117849 106.566547,137.073285 C106.415408,137.067883 106.286693,137.035473 106.174123,136.984607 C106.911881,136.806801 107.541105,136.287336 108.101711,135.758869 C108.530014,135.355541 108.947553,134.931957 109.254317,134.429148 C109.433711,134.135655 109.572293,133.811103 109.644499,133.475296 C109.684414,133.481148 109.724329,133.487 109.764693,133.493302 C110.068317,133.539217 110.397953,133.599086 110.602014,133.829559 C110.794863,134.047428 110.824463,134.375131 110.738802,134.653319" id="path1480" fill="#AECCC7"></path>
                        <path d="M105.933421,137.139006 C105.933421,137.139006 105.954052,137.135405 105.99307,137.128202 C106.032088,137.121 106.087252,137.113348 106.16484,137.092191 C106.317773,137.055729 106.524973,136.988208 106.75684,136.86937 C107.226852,136.639798 107.751579,136.191006 108.227421,135.712504 C108.467809,135.473929 108.70147,135.227251 108.8997,134.978322 C109.098379,134.729393 109.26073,134.478214 109.375094,134.250892 C109.489906,134.02357 109.558076,133.821906 109.597543,133.679211 C109.637009,133.536516 109.650015,133.452789 109.650015,133.452789 C109.650015,133.452789 109.63387,133.536066 109.589021,133.67651 C109.544173,133.816955 109.468379,134.015017 109.345943,134.235137 C109.223955,134.456157 109.053979,134.697433 108.848573,134.935559 C108.643167,135.173684 108.40233,135.408658 108.154767,135.63598 C107.662779,136.094225 107.131773,136.510607 106.680149,136.70912 C106.4577,136.812653 106.258573,136.86802 106.124476,136.894578 C106.058997,136.910333 105.9989,136.916185 105.960331,136.922037 C105.921312,136.927439 105.900234,136.93059 105.900234,136.93059 C105.842827,136.938692 105.802464,136.991809 105.810537,137.049427 C105.818609,137.107496 105.871979,137.147558 105.929385,137.139456 C105.930731,137.139456 105.932076,137.139456 105.933421,137.139006" id="path1484" fill="#BAB89C"></path>
                        <path d="M97.4621707,126.129827 C98.5654434,125.801223 99.8014676,126.283776 100.55851,127.124192 C101.315552,127.964608 101.651916,129.100767 101.742959,130.220722 C101.888716,132.01814 101.400765,133.937098 100.101056,135.229907 C99.274498,136.052767 98.1667404,136.576733 97.0154798,136.815758 C95.8637708,137.054334 94.6681102,137.020123 93.5101223,136.834214 C92.7822315,136.717177 92.0547891,136.540721 91.316583,136.578533 C90.5788255,136.616345 89.8608012,136.628499 89.4746558,137.246545 C89.6482194,136.019457 89.2952618,135.043998 88.8822073,133.877679 C88.4691528,132.71136 87.9749225,131.557195 87.8224376,130.330106 C87.545274,128.09875 88.5077225,125.746756 90.2886558,124.30495 C90.9864982,123.740021 91.8094678,123.306084 92.6965709,123.13728 C93.5841223,122.968927 94.5376011,123.078762 95.3130314,123.524403 C96.2243526,124.047468 96.994401,125.203884 97.4621707,126.129827" id="path1488" fill="#A4BDB9"></path>
                        <path d="M89.4574788,137.10376 C89.5189212,136.013515 89.2471394,134.908865 88.8820728,133.877589 C88.4690182,132.71127 87.9747879,131.557104 87.8223031,130.330016 C87.5451395,128.09866 88.5080364,125.746666 90.2885212,124.30486 C90.9863636,123.739931 91.8093333,123.305994 92.6964363,123.13719 C93.5839878,122.968837 94.5379151,123.079122 95.3128968,123.524313 C96.2237696,124.047378 96.9942665,125.203344 97.4620362,126.129287 C95.4025938,129.107879 93.3023393,133.18527 90.2131758,136.591948 C89.970994,136.773355 89.718497,136.944859 89.4574788,137.10376" id="path1492" fill="#AECCC7"></path>
                        <path d="M85.4862353,138.514281 L85.8006231,138.539039 L86.1576171,138.54444 L86.4980171,138.525535 L86.8352777,138.485922 L87.1676049,138.425603 L87.4945504,138.347278 C87.7098231,138.287859 87.9215079,138.218988 88.1291564,138.141563 C88.3354594,138.061438 88.5377261,137.97366 88.7364049,137.87868 C88.9337382,137.781449 89.1265867,137.677466 89.3153988,137.568082 C89.503314,137.456446 89.6871927,137.339409 89.8670352,137.21697 C90.0455321,137.093181 90.2204412,136.964441 90.3913139,136.831198 L90.403423,136.821745 C90.4141867,136.813193 90.4245018,136.802839 90.4334715,136.792936 L90.9523685,136.17399 L91.453326,135.542441 C91.6197139,135.331324 91.7762351,135.113455 91.9381381,134.899637 C92.1004897,134.68582 92.2511806,134.463899 92.4081503,134.24648 C92.5655684,134.029962 92.7126715,133.805791 92.8642593,133.585221 C93.0167442,133.365102 93.1611563,133.14003 93.3082593,132.91631 C93.6011199,132.468868 93.8863563,132.016925 94.1657623,131.561831 C95.2905623,129.745506 96.319835,127.878766 97.4863441,126.093501 C96.2382108,127.822498 95.1196896,129.644224 93.9164048,131.398879 C93.6172654,131.838669 93.3131927,132.274406 93.0019442,132.704743 C92.8458715,132.919461 92.6920412,133.135979 92.5310351,133.346646 C92.370926,133.558213 92.2153018,133.772931 92.0498109,133.979546 C91.8847684,134.187062 91.7260048,134.399079 91.5560291,134.602093 C91.3869503,134.805107 91.2223563,135.012623 91.0496897,135.212486 L90.5289988,135.809375 L89.9930594,136.390959 L90.035217,136.352697 C89.8679321,136.469734 89.6984049,136.58272 89.5257382,136.690304 C89.3521746,136.796087 89.17592,136.896469 88.9974231,136.991449 C88.8175806,137.084178 88.6354958,137.170606 88.4511685,137.250731 C88.2663928,137.328156 88.0789261,137.398828 87.890114,137.461398 C87.7008534,137.521717 87.5097989,137.573933 87.3173989,137.617147 L87.0281261,137.671614 L86.7379565,137.709426 L86.4477868,137.729233 L86.158514,137.731033 L85.8853868,137.714378 L85.5727928,137.674315 C85.3422716,137.644606 85.1314838,137.808007 85.1018838,138.039381 C85.0722838,138.270754 85.2350838,138.482321 85.465605,138.51203 C85.4718838,138.512931 85.4799565,138.513831 85.4862353,138.514281" id="path1496" fill="#BAB89C"></path>
                    </g>
                    <path d="M36.5559931,13.8167401 C34.0127917,12.7995869 31.830721,10.8948928 30.7501948,9.84430153 L30.7501948,1.99082164 C31.1062302,1.8293637 31.3549455,1.47269132 31.3549455,1.05614894 C31.3549455,0.488339253 30.8947745,0.028168196 30.3272832,0.028168196 L22.701182,0.028168196 C22.1333723,0.028168196 21.6732013,0.488339253 21.6732013,1.05614894 C21.6732013,1.47269132 21.9215981,1.8293637 22.277952,1.99082164 L22.277952,9.84430153 C21.1971073,10.8952112 19.0147182,12.7995869 16.4721537,13.8167401 C12.8433307,15.2682693 10.7236777,20.9489138 11.0290785,25.3076413 C11.3723756,30.2099758 11.2717431,59.576734 11.2717431,59.576734 C11.2717431,59.576734 10.1346806,66.3500061 13.5289697,66.3500061 C16.4721537,66.3500061 36.5559931,66.3500061 39.4988586,66.3500061 C42.8931219,66.3500061 41.7564037,59.576734 41.7564037,59.576734 C41.7564037,59.576734 41.9442936,30.2099758 41.9990683,25.3076413 C42.0477923,20.9384047 40.1848161,15.2682693 36.5559931,13.8167401 Z" id="Fill-6" fill-opacity="0.421223958" fill="#9FD5D7" transform="translate(26.500000, 33.189087) scale(1, -1) translate(-26.500000, -33.189087) "></path>
                </g>
                <g id="Camera" transform="translate(15.000000, 119.000000)">
                    <path d="M9.09409091,5.16147059 C9.09409091,5.2095098 9.03613636,5.24588235 8.96590909,5.24588235 L5.20636364,5.24588235 C5.13409091,5.24588235 5.07613636,5.2095098 5.07613636,5.16147059 L5.07613636,3.77382353 C5.07613636,3.72715686 5.13409091,3.69009804 5.20636364,3.69009804 L8.96590909,3.69009804 C9.03613636,3.69009804 9.09409091,3.72715686 9.09409091,3.77382353 L9.09409091,5.16147059" id="Fill-59" fill="#979894"></path>
                    <path d="M44.4375,32.3891841 C44.4375,32.7153707 44.0931818,32.977549 43.6684091,32.977549 L0.768409091,32.977549 C0.343636364,32.977549 0,32.7153707 0,32.3891841 L0,11.7600535 C0,11.4343789 0.343636364,11.1711765 0.768409091,11.1711765 L43.6684091,11.1711765 C44.0931818,11.1711765 44.4375,11.4343789 44.4375,11.7600535 L44.4375,32.3891841" id="Fill-60" fill="#81817F"></path>
                    <path d="M43.6684091,5.20607843 L0.768409091,5.20607843 C0.343636364,5.20607843 0,5.55882353 0,5.99529412 L0,11.1711765 L44.4375,11.1711765 L44.4375,5.99529412 C44.4375,5.55882353 44.0931818,5.20607843 43.6684091,5.20607843" id="Fill-61" fill="#E9EAE7"></path>
                    <path d="M0,32.977549 L0,33.642549 C0,34.0797059 0.343636364,34.4310784 0.768409091,34.4310784 L43.6684091,34.4310784 C44.0931818,34.4310784 44.4375,34.0797059 44.4375,33.642549 L44.4375,32.977549 L0,32.977549" id="Fill-62" fill="#E9EAE7"></path>
                    <path d="M36.5720455,6.84627451 L33.5209091,0.121470588 C33.4861364,0.0473529412 33.4234091,0 33.3552273,0 L19.1475,0 C19.0786364,0 19.0152273,0.0473529412 18.9818182,0.121470588 L15.9293182,6.84627451 C15.8938636,6.92107843 15.8938636,7.01441176 15.9293182,7.08990196 C15.9640909,7.16470588 16.0254545,7.21137255 16.0943182,7.21137255 L36.4070455,7.21137255 C36.4759091,7.21137255 36.5386364,7.16470588 36.5720455,7.08990196 C36.6068182,7.01441176 36.6068182,6.92107843 36.5720455,6.84627451" id="Fill-63" fill="#E9EAE7"></path>
                    <path d="M41.0775,19.5073529 C41.0775,27.7495098 34.4379545,34.4310784 26.25,34.4310784 C18.0634091,34.4310784 11.4252273,27.7495098 11.4252273,19.5073529 C11.4252273,11.2672549 18.0634091,4.58568627 26.25,4.58568627 C34.4379545,4.58568627 41.0775,11.2672549 41.0775,19.5073529" id="Fill-64" fill="#979894"></path>
                    <path d="M39.2652273,19.5073529 C39.2652273,26.7434314 33.4384091,32.6076471 26.25,32.6076471 C19.0622727,32.6076471 13.2368182,26.7434314 13.2368182,19.5073529 C13.2368182,12.2740196 19.0622727,6.4077451 26.25,6.4077451 C33.4384091,6.4077451 39.2652273,12.2740196 39.2652273,19.5073529" id="Fill-65" fill="#40413E"></path>
                    <path d="M36.765,19.5073529 C36.765,25.3537255 32.0590909,30.0917647 26.25,30.0917647 C20.4443182,30.0917647 15.7370455,25.3537255 15.7370455,19.5073529 C15.7370455,13.6637255 20.4443182,8.92568627 26.25,8.92568627 C32.0590909,8.92568627 36.765,13.6637255 36.765,19.5073529" id="Fill-66" fill="#EAEAE6"></path>
                    <path d="M18.8290909,22.2126471 C18.8290909,16.5927451 23.3543182,12.0358824 28.9370455,12.0358824 C31.0322727,12.0358824 32.9795455,12.6796078 34.5934091,13.7797059 C32.7770455,11.0744118 29.7027273,9.29901961 26.2159091,9.29901961 C20.6318182,9.29901961 16.1086364,13.8545098 16.1086364,19.4737255 C16.1086364,22.9840196 17.8738636,26.0784314 20.5595455,27.9066667 C19.4659091,26.2822549 18.8290909,24.3215686 18.8290909,22.2126471" id="Fill-67" fill="#F6F6F4"></path>
                </g>
            </g>
            <g id="Calendar" transform="translate(0.000000, 237.000000)">
                <path d="M40.565,2.243 L76.591,14.939 L4.541,14.939 L40.565,2.243 L40.565,2.243 Z M40.565,1.422 L0.063,15.697 L81.07,15.697 L40.565,1.422 L40.565,1.422 Z" id="Fill-203" fill="#E8E7E3"></path>
                <path d="M81.074,15.425 C81.074,14.121 80.019,13.065 78.714,13.065 L2.421,13.065 C1.116,13.065 0.059,14.121 0.059,15.425 L0.059,73.292 C0.059,74.595 1.116,75.654 2.421,75.654 L78.0748226,75.654 C79.7312225,75.654 81.074,74.3161456 81.074,72.6565885 L81.074,65.885 L81.074,15.425 Z" id="Fill-204" fill="#F3F4F1"></path>
                <path d="M78.714,13.065 L2.421,13.065 C1.116,13.065 0.059,14.121 0.059,15.425 L0.059,29.267 L81.074,29.267 L81.074,15.425 C81.074,14.121 80.019,13.065 78.714,13.065" id="Fill-205" fill="#EA9795"></path>
                <polygon id="Fill-206" fill="#B9D3E0" points="3.648 38.321 14.787 38.321 14.787 32.319 3.648 32.319"></polygon>
                <polygon id="Fill-207" fill="#B9D3E0" points="19.321 38.321 30.462 38.321 30.462 32.319 19.321 32.319"></polygon>
                <polygon id="Fill-208" fill="#B9D3E0" points="34.997 38.321 46.136 38.321 46.136 32.319 34.997 32.319"></polygon>
                <polygon id="Fill-209" fill="#B9D3E0" points="50.671 38.321 61.81 38.321 61.81 32.319 50.671 32.319"></polygon>
                <polygon id="Fill-210" fill="#B9D3E0" points="66.345 38.321 77.483 38.321 77.483 32.319 66.345 32.319"></polygon>
                <polygon id="Fill-211" fill="#B9D3E0" points="3.648 46.849 14.787 46.849 14.787 40.847 3.648 40.847"></polygon>
                <polygon id="Fill-212" fill="#B9D3E0" points="19.321 46.849 30.462 46.849 30.462 40.847 19.321 40.847"></polygon>
                <polygon id="Fill-213" fill="#B9D3E0" points="34.997 46.849 46.136 46.849 46.136 40.847 34.997 40.847"></polygon>
                <polygon id="Fill-214" fill="#B9D3E0" points="50.671 46.849 61.81 46.849 61.81 40.847 50.671 40.847"></polygon>
                <polygon id="Fill-215" fill="#B9D3E0" points="66.345 46.849 77.483 46.849 77.483 40.847 66.345 40.847"></polygon>
                <polygon id="Fill-216" fill="#B9D3E0" points="3.648 55.377 14.787 55.377 14.787 49.375 3.648 49.375"></polygon>
                <polygon id="Fill-217" fill="#B9D3E0" points="19.321 55.377 30.462 55.377 30.462 49.375 19.321 49.375"></polygon>
                <polygon id="Fill-218" fill="#B9D3E0" points="34.997 55.377 46.136 55.377 46.136 49.375 34.997 49.375"></polygon>
                <polygon id="Fill-219" fill="#B9D3E0" points="50.671 55.377 61.81 55.377 61.81 49.375 50.671 49.375"></polygon>
                <polygon id="Fill-220" fill="#B9D3E0" points="66.345 55.377 77.483 55.377 77.483 49.375 66.345 49.375"></polygon>
                <polygon id="Fill-221" fill="#B9D3E0" points="3.648 72.434 14.787 72.434 14.787 66.432 3.648 66.432"></polygon>
                <polygon id="Fill-222" fill="#B9D3E0" points="19.321 72.434 30.462 72.434 30.462 66.432 19.321 66.432"></polygon>
                <polygon id="Fill-223" fill="#B9D3E0" points="34.997 72.434 46.136 72.434 46.136 66.432 34.997 66.432"></polygon>
                <polygon id="Fill-224" fill="#B9D3E0" points="50.671 72.434 61.81 72.434 61.81 66.432 50.671 66.432"></polygon>
                <polygon id="Fill-225" fill="#B9D3E0" points="66.345 72.434 77.484 72.434 77.484 66.432 66.345 66.432"></polygon>
                <polygon id="Fill-226" fill="#B9D3E0" points="3.648 63.906 14.787 63.906 14.787 57.904 3.648 57.904"></polygon>
                <polygon id="Fill-227" fill="#B9D3E0" points="19.321 63.906 30.462 63.906 30.462 57.904 19.321 57.904"></polygon>
                <polygon id="Fill-228" fill="#B9D3E0" points="34.997 63.906 46.136 63.906 46.136 57.904 34.997 57.904"></polygon>
                <polygon id="Fill-229" fill="#B9D3E0" points="50.671 63.906 61.81 63.906 61.81 57.904 50.671 57.904"></polygon>
                <polygon id="Fill-230" fill="#B9D3E0" points="66.345 63.906 77.483 63.906 77.483 57.904 66.345 57.904"></polygon>
                <path d="M42.723,2.727 C42.723,3.918 41.757,4.884 40.565,4.884 C39.375,4.884 38.408,3.918 38.408,2.727 C38.408,1.535 39.375,0.57 40.565,0.57 C41.757,0.57 42.723,1.535 42.723,2.727" id="Fill-232" fill="#515D68"></path>
            </g>
            <g id="Pens" transform="translate(250.000000, 346.799988)">
                <path d="M24.672,8.064 L22.524,60.132 C22.457,61.78 23.078,63.145 23.912,63.181 L25.243,63.235 C26.076,63.27 26.807,61.96 26.874,60.313 L29.024,8.242 L24.672,8.064" id="Fill-68" fill="#8FCB9C"></path>
                <polyline id="Fill-70" fill="#E9CF8C" points="24.672 8.062 27.144 0.913 29.024 8.24 24.672 8.062"></polyline>
                <polyline id="Fill-71" fill="#828382" points="27.771 3.354 27.144 0.911 26.322 3.294 27.771 3.354"></polyline>
                <path d="M2.334,9.55 L6.637,61.485 C6.773,63.129 7.557,64.406 8.389,64.338 L9.718,64.228 C10.549,64.16 11.112,62.771 10.976,61.125 L6.676,9.19 L2.334,9.55" id="Fill-72" fill="#AF9784"></path>
                <polyline id="Fill-74" fill="#E9CF8C" points="2.334 9.548 3.907 2.147 6.676 9.188 2.334 9.548"></polyline>
                <polyline id="Fill-75" fill="#828382" points="4.829 4.493 3.905 2.147 3.383 4.614 4.829 4.493"></polyline>
                <path d="M8.234,9.404 L8.234,61.519 C8.234,63.168 8.91,64.504 9.742,64.504 L11.078,64.504 C11.914,64.504 12.588,63.168 12.588,61.519 L12.588,9.404 L8.234,9.404" id="Fill-76" fill="#E78D8B"></path>
                <polyline id="Fill-78" fill="#E9CF8C" points="8.234 9.402 10.412 2.156 12.59 9.402 8.234 9.402"></polyline>
                <polyline id="Fill-79" fill="#828382" points="11.137 4.573 10.412 2.156 9.688 4.573 11.137 4.573"></polyline>
                <path d="M14.747,7.376 L11.711,59.401 C11.615,61.048 12.212,62.424 13.042,62.47 L14.377,62.549 C15.209,62.599 15.961,61.303 16.056,59.655 L19.095,7.629 L14.747,7.376" id="Fill-80" fill="#71B1CB"></path>
                <path d="M13.042,62.47 L14.377,62.549 C15.209,62.599 15.961,61.303 16.056,59.655 L16.172,57.681 L11.825,57.431 L11.711,59.401 C11.615,61.048 12.212,62.424 13.042,62.47" id="Fill-81" fill="#D1D2D1"></path>
                <polyline id="Fill-82" fill="#E9CF8C" points="14.747 7.374 17.343 0.268 19.095 7.629 14.747 7.374"></polyline>
                <polyline id="Fill-83" fill="#828382" points="17.927 2.721 17.343 0.268 16.477 2.637 17.927 2.721"></polyline>
                <path d="M19.433,8.286 L23.786,60.219 C23.923,61.863 24.71,63.139 25.541,63.071 L26.871,62.958 C27.702,62.89 28.264,61.499 28.127,59.853 L23.773,7.925 L19.433,8.286" id="Fill-84" fill="#E6B092"></path>
                <path d="M25.541,63.071 L26.871,62.958 C27.702,62.89 28.264,61.499 28.127,59.853 L27.961,57.888 L23.621,58.251 L23.786,60.219 C23.923,61.863 24.71,63.139 25.541,63.071" id="Fill-85" fill="#D1D2D1"></path>
                <polyline id="Fill-86" fill="#E9CF8C" points="19.431 8.285 20.998 0.884 23.773 7.922 19.431 8.285"></polyline>
                <polyline id="Fill-87" fill="#828382" points="21.92 3.23 20.996 0.884 20.477 3.351 21.92 3.23"></polyline>
                <polyline id="Fill-88" fill="#80817D" points="1.487 30.075 3.167 66.21 31.035 66.21 32.715 30.075 1.487 30.075"></polyline>
                <polyline id="Fill-89" fill="#6F706B" points="1.883 38.598 32.318 38.598 32.715 30.075 1.487 30.075 1.883 38.598"></polyline>
                <path d="M33.525,34.544 C33.525,34.872 33.26,35.136 32.933,35.136 L1.269,35.136 C0.944,35.136 0.678,34.872 0.678,34.544 L0.678,23.087 C0.678,22.761 0.944,22.494 1.269,22.494 L32.933,22.494 C33.26,22.494 33.525,22.761 33.525,23.087 L33.525,34.544" id="Fill-90" fill="#80817D"></path>
            </g>
            <g id="Cactus" transform="translate(289.000000, 388.000000) scale(1, -1) translate(-289.000000, -388.000000) translate(276.000000, 363.000000)">
                <g id="Group-3">
                    <path d="M24.4347959,33.1262947 C24.6204215,34.0528272 25.6642865,34.9205635 25.6642865,35.9074706 C25.6642865,36.8942461 24.6204215,37.7619824 24.4347959,38.6885149 C24.2415508,39.6509564 24.8610911,40.8568692 24.4893144,41.7297354 C24.1063712,42.6291716 22.8050212,43.0115438 22.256552,43.7895733 C21.69534,44.5858861 21.7654915,45.9421434 21.0572765,46.5833765 C20.3390774,47.2334224 19.0018635,47.0223088 18.1593885,47.483602 C17.3170449,47.9451583 16.7675248,49.1873747 15.8282302,49.4297937 C14.9112685,49.6665567 13.8342983,48.8506451 12.8496811,48.8506451 C11.865458,48.8506451 10.7884879,49.6669513 9.87100068,49.4297937 C8.93157474,49.1873747 8.38218594,47.9455529 7.53984233,47.4841281 C6.69749872,47.0227034 5.36067892,47.233817 4.64247984,46.5837711 C3.93439624,45.942538 4.0038909,44.5862807 3.44307293,43.7899679 C2.89460372,43.0115438 1.59285968,42.6294347 1.20978513,41.7297354 C0.838139772,40.8568692 1.45768008,39.6509564 1.26456637,38.6885149 C1.07894074,37.7619824 0.0349443855,36.8942461 0.0349443855,35.9074706 C0.0349443855,34.9205635 1.07894074,34.0528272 1.26456637,33.1262947 C1.45768008,32.1638532 0.838139772,30.9579404 1.20978513,30.0850742 C1.59285968,29.185638 2.89420961,28.8032657 3.44281019,28.0251047 C4.0038909,27.2289234 3.93387076,25.8726662 4.64195436,25.2314331 C5.36028481,24.5813872 6.69749872,24.7923693 7.53984233,24.3310761 C8.38218594,23.8695198 8.93157474,22.6273033 9.87100068,22.3851474 C10.7880937,22.1482529 11.8649326,22.9641645 12.8496811,22.9641645 C13.8337728,22.9641645 14.910743,22.1478583 15.8282302,22.3851474 C16.7675248,22.6273033 17.3166508,23.8691252 18.1589944,24.3305499 C19.0018635,24.7919747 20.3385519,24.580861 21.0568824,25.2309069 C21.7648346,25.8722716 21.69534,27.2283973 22.2562893,28.0245786 C22.8046271,28.8032657 24.1063712,29.1851118 24.4893144,30.0850742 C24.8610911,30.9579404 24.2415508,32.1638532 24.4347959,33.1262947" id="path184" fill="#8CC63F"></path>
                    <path d="M15.9043459,34.7430044 C15.9043459,26.3304211 14.5366542,19.5105949 12.8497337,19.5105949 C11.1625504,19.5105949 9.79499007,26.3304211 9.79499007,34.7430044 C9.79499007,43.1558509 11.1625504,49.9758086 12.8497337,49.9758086 C14.5366542,49.9758086 15.9043459,43.1558509 15.9043459,34.7430044" id="path188" fill="#82B93A"></path>
                    <path d="M15.9043459,34.7430044 C15.9043459,43.1558509 14.5366542,49.9758086 12.8497337,49.9758086 L12.8497337,19.5105949 C14.5366542,19.5105949 15.9043459,26.3304211 15.9043459,34.7430044" id="path192" fill="#79AD36"></path>
                    <polygon id="path196" fill="#D1D3D4" points="4.0429603 0.00298250451 0.66636053 25.557995 7.41969145 25.557995"></polygon>
                    <polygon id="path200" fill="#D1D3D4" points="22.4163898 0.00298250451 19.0396586 25.557995 25.7931209 25.557995"></polygon>
                    <polygon id="path208" fill="#BCBEC0" points="7.41970458 25.5580345 4.04297344 0.00302196501 13.2296685 0.00302196501"></polygon>
                    <polygon id="path212" fill="#BCBEC0" points="19.0396455 25.5580345 22.4163766 0.00302196501 13.2296816 0.00302196501"></polygon>
                    <polygon id="path204" fill="#E7E8E9" points="13.2296816 0.00298250451 7.41971772 25.557995 19.0396455 25.557995"></polygon>
                </g>
            </g>
            <g id="Lamp" transform="translate(118.000000, 229.000000)">
                <g id="Group-8" transform="translate(85.000000, 0.000000)">
                    <mask id="mask-3" fill="white">
                        <use xlink:href="#path-2"></use>
                    </mask>
                    <g id="Rectangle-11"></g>
                    <g id="lamp" mask="url(#mask-3)">
                        <g transform="translate(182.914525, 162.707786) rotate(-6.000000) translate(-182.914525, -162.707786) translate(31.414525, -2.792214)">
                            <polygon id="Fill-1166" fill="#C9BD9E" points="0.819 0 18.141 20.271 15.991 22.109 0.051 3.456"></polygon>
                            <polygon id="Path-9" fill-opacity="0.167657382" fill="#FFFFFF" points="27 73 23.6202088 330.240563 302.015332 169.5 59 47.5"></polygon>
                            <path d="M36.765,22.841 C28.988,25.388 21.339,12.998 21.339,12.998 C21.339,12.998 19.179,13.142 14.736,16.046 C10.293,18.951 9.294,20.872 9.294,20.872 C9.294,20.872 18.292,31.455 12.84,37.557 C7.388,43.659 11.31,51.544 11.31,51.544 L26.576,74.131 C40.359,69.348 46.784,64.301 46.784,64.301 C46.784,64.301 53.983,60.44 63.893,49.733 L48.628,27.146 C48.628,27.146 44.541,20.292 36.765,22.841" id="Fill-1170" fill="#696A68"></path>
                        </g>
                    </g>
                </g>
                <polygon id="Fill-1166" fill="#C9BD9E" points="45.588 173.543 45.588 155.449 1.603 58.901 100.819 14 100.051 17.456 5.356 60.31 48.419 154.835 48.419 173.543"></polygon>
                <path d="M50.542,154.612 C50.542,152.462 48.799,150.72 46.649,150.72 C44.5,150.72 42.758,152.462 42.758,154.612 C42.758,156.761 44.5,158.504 46.649,158.504 C48.799,158.504 50.542,156.761 50.542,154.612" id="Fill-1167" fill="#696A68"></path>
                <path d="M7.785,59.916 C7.785,57.766 6.042,56.023 3.892,56.023 C1.743,56.023 0,57.766 0,59.916 C0,62.065 1.743,63.808 3.892,63.808 C6.042,63.808 7.785,62.065 7.785,59.916" id="Fill-1168" fill="#696A68"></path>
                <path d="M103.785,15.916 C103.785,13.766 102.042,12.023 99.892,12.023 C97.743,12.023 96,13.766 96,15.916 C96,18.065 97.743,19.808 99.892,19.808 C102.042,19.808 103.785,18.065 103.785,15.916" id="Fill-1168" fill="#696A68"></path>
                <polygon id="Fill-1171" fill="#696A68" points="12.15 184.371 81.112 184.371 81.112 173.993 12.15 173.993"></polygon>
            </g>
            <g id="Clock" transform="translate(4.000000, 109.000000)">
                <path d="M74.5514563,37.3980583 C74.5514563,57.8242718 57.9924757,74.3832524 37.5669903,74.3832524 C17.1407767,74.3832524 0.581796117,57.8242718 0.581796117,37.3980583 C0.581796117,16.9711165 17.1407767,0.412135922 37.5669903,0.412135922 C57.9924757,0.412135922 74.5514563,16.9711165 74.5514563,37.3980583" id="Fill-162" fill="#909AA2"></path>
                <path d="M71.8063107,37.3980583 C71.8063107,56.3082524 56.4764563,71.6381068 37.5669903,71.6381068 C18.656068,71.6381068 3.32694175,56.3082524 3.32694175,37.3980583 C3.32694175,18.4871359 18.656068,3.15728155 37.5669903,3.15728155 C56.4764563,3.15728155 71.8063107,18.4871359 71.8063107,37.3980583" id="Fill-163" fill="#F6F6F4"></path>
                <path d="M38.5776699,8.90825243 C38.5776699,9.32184466 38.2434466,9.65606796 37.8298544,9.65606796 L37.3026699,9.65606796 C36.8890777,9.65606796 36.5548544,9.32184466 36.5548544,8.90825243 L36.5548544,6.85121359 C36.5548544,6.43762136 36.8890777,6.1026699 37.3026699,6.1026699 L37.8298544,6.1026699 C38.2434466,6.1026699 38.5776699,6.43762136 38.5776699,6.85121359 L38.5776699,8.90825243" id="Fill-164" fill="#CFCEC9"></path>
                <path d="M66.056068,38.4087379 C65.6424757,38.4087379 65.3067961,38.0737864 65.3067961,37.6609223 L65.3067961,37.1337379 C65.3067961,36.7208738 65.6424757,36.3851942 66.056068,36.3851942 L68.1123786,36.3851942 C68.5259709,36.3851942 68.8616505,36.7208738 68.8616505,37.1337379 L68.8616505,37.6609223 C68.8616505,38.0737864 68.5259709,38.4087379 68.1123786,38.4087379 L66.056068,38.4087379" id="Fill-165" fill="#CFCEC9"></path>
                <path d="M36.5563107,65.8871359 C36.5563107,65.4742718 36.8898058,65.1393204 37.3041262,65.1393204 L37.8313107,65.1393204 C38.2441748,65.1393204 38.5783981,65.4742718 38.5783981,65.8871359 L38.5783981,67.9441748 C38.5783981,68.3570388 38.2441748,68.6927184 37.8313107,68.6927184 L37.3041262,68.6927184 C36.8898058,68.6927184 36.5563107,68.3570388 36.5563107,67.9441748 L36.5563107,65.8871359" id="Fill-166" fill="#CFCEC9"></path>
                <path d="M9.07718447,36.3859223 C9.4907767,36.3859223 9.825,36.7208738 9.825,37.134466 L9.825,37.6616505 C9.825,38.0745146 9.4907767,38.409466 9.07718447,38.409466 L7.02014563,38.409466 C6.60800971,38.409466 6.2723301,38.0745146 6.2723301,37.6616505 L6.2723301,37.134466 C6.2723301,36.7208738 6.60800971,36.3859223 7.02014563,36.3859223 L9.07718447,36.3859223" id="Fill-167" fill="#CFCEC9"></path>
                <path d="M53.2237864,13.5742718 C53.0082524,13.9274272 52.5480583,14.0395631 52.1949029,13.8254854 L51.7449029,13.5524272 C51.3910194,13.3368932 51.2788835,12.876699 51.4936893,12.5235437 L52.561165,10.7657767 C52.7759709,10.4126214 53.2354369,10.3004854 53.5893204,10.5145631 L54.0400485,10.7883495 C54.3924757,11.0031553 54.506068,11.4626214 54.2912621,11.8157767 L53.2237864,13.5742718" id="Fill-168" fill="#CFCEC9"></path>
                <path d="M61.3900485,53.0541262 C61.0376214,52.8393204 60.9247573,52.3791262 61.1395631,52.0259709 L61.4126214,51.5752427 C61.626699,51.2220874 62.0868932,51.1099515 62.4400485,51.3247573 L64.1992718,52.3929612 C64.5509709,52.6070388 64.6645631,53.067233 64.4497573,53.4211165 L64.176699,53.8711165 C63.961165,54.2242718 63.5009709,54.3364078 63.1478155,54.1216019 L61.3900485,53.0541262" id="Fill-169" fill="#CFCEC9"></path>
                <path d="M21.9101942,61.2211165 C22.1257282,60.8686893 22.5866505,60.7558252 22.9390777,60.9706311 L23.3898058,61.2436893 C23.742233,61.4584951 23.8543689,61.9186893 23.6410194,62.2718447 L22.5713592,64.0296117 C22.3580097,64.382767 21.8970874,64.4956311 21.5424757,64.2808252 L21.0946602,64.007767 C20.7407767,63.7929612 20.6271845,63.3320388 20.8434466,62.9788835 L21.9101942,61.2211165" id="Fill-170" fill="#CFCEC9"></path>
                <path d="M13.7424757,21.7419903 C14.0956311,21.9567961 14.2099515,22.4162621 13.9936893,22.7701456 L13.7206311,23.2201456 C13.5065534,23.5740291 13.0449029,23.6854369 12.693932,23.4713592 L10.9354369,22.4024272 C10.5815534,22.1883495 10.4686893,21.7281553 10.6834951,21.375 L10.9572816,20.925 C11.1720874,20.5711165 11.6330097,20.4597087 11.9847087,20.6737864 L13.7424757,21.7419903" id="Fill-171" fill="#CFCEC9"></path>
                <path d="M62.7917476,24.1186893 C62.4334951,24.3247573 61.9769417,24.2009709 61.7708738,23.8419903 L61.5101942,23.3854369 C61.3041262,23.0264563 61.4293689,22.5691748 61.7868932,22.363835 L63.5723301,21.3407767 C63.9305825,21.136165 64.3878641,21.2599515 64.5932039,21.6182039 L64.8538835,22.0754854 C65.0606796,22.434466 64.9368932,22.8917476 64.5771845,23.0970874 L62.7917476,24.1186893" id="Fill-172" fill="#CFCEC9"></path>
                <path d="M50.8449029,62.6235437 C50.6410194,62.2652913 50.7633495,61.8087379 51.1223301,61.6026699 L51.5796117,61.340534 C51.9378641,61.1351942 52.3936893,61.2604369 52.6004854,61.6179612 L53.6228155,63.4041262 C53.8288835,63.7623786 53.7043689,64.2196602 53.3461165,64.4242718 L52.8881068,64.6864078 C52.5298544,64.8924757 52.0718447,64.767233 51.8665049,64.4089806 L50.8449029,62.6235437" id="Fill-173" fill="#CFCEC9"></path>
                <path d="M12.3400485,50.6759709 C12.6990291,50.4713592 13.1570388,50.5944175 13.3616505,50.9533981 L13.6230583,51.4106796 C13.8298544,51.7696602 13.7046117,52.2269417 13.3456311,52.4315534 L11.5601942,53.4538835 C11.2019417,53.6592233 10.7453883,53.5354369 10.5400485,53.1764563 L10.2764563,52.7199029 C10.0725728,52.3609223 10.1963592,51.9036408 10.556068,51.698301 L12.3400485,50.6759709" id="Fill-174" fill="#CFCEC9"></path>
                <path d="M24.2868932,12.1718447 C24.4936893,12.5300971 24.3699029,12.9873786 24.0116505,13.1927184 L23.5536408,13.4541262 C23.193932,13.6601942 22.7381068,13.5349515 22.5334951,13.176699 L21.511165,11.3919903 C21.3050971,11.0337379 21.4296117,10.5757282 21.7878641,10.3703883 L22.2451456,10.1097087 C22.6033981,9.90364078 23.0614078,10.0281553 23.2660194,10.3864078 L24.2868932,12.1718447" id="Fill-175" fill="#CFCEC9"></path>
                <path d="M37.5,11.9951038 L37.5,37.5277564" id="minuteClock" stroke="#A3CACB" stroke-width="2" stroke-linecap="round"></path>
                <path d="M37.5,19.5 L37.5,37.5277564" id="hourClock" stroke="#E99F9F" stroke-width="2" stroke-linecap="round"></path>
            </g>
        </g>
    </g>
</svg>